<?xml version="1.0" standalone="no"?>
<!DOCTYPE svg PUBLIC "-//W3C//DTD SVG 1.1//EN" "http://www.w3.org/Graphics/SVG/1.1/DTD/svg11.dtd" >
<svg>
<metadata>
Created by FontForge 20120731 at Fri Jul 19 02:49:40 2019
 By www
(c)2003 Designed by Alan Meeks for AlanMeeks.com. All Rights Reserved.
</metadata>
<defs>
<font id="BrigadeW00-MediumItalic" horiz-adv-x="990" >
  <font-face 
    font-family="BrigadeW00-MediumItalic"
    font-weight="500"
    font-style="italic"
    font-stretch="normal"
    units-per-em="1000"
    panose-1="0 0 5 0 0 0 0 0 0 0"
    ascent="800"
    descent="-200"
    x-height="430"
    cap-height="696"
    bbox="-245 -409 1053 876"
    underline-thickness="50"
    underline-position="-143"
    slope="-11"
    unicode-range="U+0020-FB02"
  />
<missing-glyph horiz-adv-x="500" 
d="M63 0v800h375v-800h-375zM125 63h250v675h-250v-675z" />
    <glyph glyph-name=".notdef" horiz-adv-x="500" 
d="M63 0v800h375v-800h-375zM125 63h250v675h-250v-675z" />
    <glyph glyph-name="glyph1" horiz-adv-x="0" 
 />
    <glyph glyph-name="glyph2" horiz-adv-x="289" 
 />
    <glyph glyph-name="space" unicode=" " horiz-adv-x="289" 
 />
    <glyph glyph-name="exclam" unicode="!" horiz-adv-x="365" 
d="M340 662q0 -39 -64 -232q-56 -166 -87 -241q-11 -28 -25 -28t-14 19v2l1 7q3 102 21 254q13 117 25 179q18 95 89 95q54 0 54 -55zM205 60q0 -29 -21 -51t-50 -22q-23 0 -38.5 16t-15.5 39q0 29 21.5 51t49.5 22q23 0 38.5 -16t15.5 -39z" />
    <glyph glyph-name="quotedbl" unicode="&#x22;" horiz-adv-x="354" 
d="M389 668q0 -27 -41 -131l-25 -66q-3 -11 -13 -32q-7 -15 -18 -15q-12 0 -12 15q0 8 6 107q6 85 9 99q14 63 60 63q34 0 34 -40zM254 668q0 -27 -41 -131l-25 -66q-4 -11 -13 -32q-7 -15 -18 -15q-12 0 -12 15q0 8 6 107q6 86 9 99q14 63 60 63q34 0 34 -40z" />
    <glyph glyph-name="numbersign" unicode="#" horiz-adv-x="465" 
d="M476 366q0 -13 -9 -22.5t-22 -9.5h-71l-33 -79h56q26 0 26 -28q0 -13 -9 -22.5t-21 -9.5h-76l-74 -180q-9 -21 -30 -21q-27 0 -27 29q0 7 2 13l65 159h-78l-75 -182q-9 -21 -30 -21q-27 0 -27 29q0 7 2 13l66 161h-50q-26 0 -26 28q0 13 9 22.5t21 9.5h71l32 79l-54 1
q-27 0 -27 27q0 13 9 22.5t22 9.5h75l59 146q9 20 30 20q28 0 28 -29q0 -6 -3 -13l-51 -124h79l60 148q9 20 30 20q28 0 28 -29q0 -6 -3 -13l-52 -126h51q27 0 27 -28zM310 334h-78l-33 -79h79z" />
    <glyph glyph-name="dollar" unicode="$" horiz-adv-x="462" 
d="M503 679q0 -5 -2 -13l-24 -108q-4 -19 -18 -19q-12 0 -12 13q0 7 2 21t2 21q0 75 -74 79l-57 -257q60 -48 81 -74q37 -46 37 -101q0 -35 -12 -73q-45 -149 -200 -181l-19 -84q-7 -31 -35 -31q-23 0 -23 23q0 4 18 86q-37 0 -78 9q-60 14 -60 38q0 22 9 68q13 64 13 70
q3 19 17 19q13 0 13 -19v-9q-1 -5 -1 -7q0 -118 97 -123l65 292q-61 50 -79 72q-33 42 -33 99q0 33 11 65q46 131 187 156q5 23 15 67q8 30 36 30q22 0 22 -23q0 -5 -15 -70q73 -1 105 -19q12 -6 12 -17zM318 665q-39 -13 -65 -46.5t-26 -73.5q0 -46 45 -88zM336 183
q0 48 -46 94l-53 -241q44 17 71.5 58.5t27.5 88.5z" />
    <glyph glyph-name="percent" unicode="%" horiz-adv-x="667" 
d="M347 583q0 -90 -53 -165q-58 -83 -144 -83q-56 0 -86 38q-28 35 -28 91q0 90 52 165q59 83 145 83q55 0 86 -38q28 -35 28 -91zM620 714q0 -13 -15 -30l-549 -692q-17 -21 -30 -21q-19 0 -19 16q0 12 14 30l550 692q17 21 31 21q18 0 18 -16zM589 232q0 -90 -53 -165
q-58 -83 -144 -83q-56 0 -86 38q-28 35 -28 92q0 90 52 164q58 83 145 83q55 0 86 -38q28 -34 28 -91zM277 610q0 70 -51 70q-59 0 -94 -97q-27 -74 -27 -146q0 -70 52 -70q58 0 93 97q27 74 27 146zM519 260q0 69 -51 69q-59 0 -94 -96q-27 -75 -27 -147q0 -70 52 -70
q58 0 93 97q27 74 27 147z" />
    <glyph glyph-name="ampersand" unicode="&#x26;" horiz-adv-x="778" 
d="M789 448v-3q-5 -12 -19 -15q-8 -1 -23 -4q-50 -11 -84 -64q-81 -129 -144 -197q53 -102 126 -102q37 0 80 24t46 24q10 0 10 -10q0 -8 -12 -22q-81 -91 -176 -91q-111 0 -173 92q-114 -93 -234 -93q-70 0 -111 37q-44 38 -44 107q0 95 77 166q47 44 159 102
q-15 45 -15 91q0 91 64 158t155 67q52 0 84 -22q37 -26 37 -75q0 -14 -3 -28q-15 -66 -74 -111q-34 -26 -120 -67q36 -102 104 -217q36 41 65 91q37 63 37 102q0 30 -31 37.5t-31 17.5q0 17 18 17h219q13 0 13 -12zM509 611q0 66 -57 66q-42 0 -68 -40q-23 -34 -23 -78
q0 -43 23 -113q53 24 87 65q38 47 38 100zM399 108q-72 116 -118 253q-127 -81 -127 -191q0 -50 29.5 -83t78.5 -33q72 0 137 54z" />
    <glyph glyph-name="quotesingle" unicode="'" horiz-adv-x="219" 
d="M254 668q0 -27 -41 -131l-25 -66q-3 -11 -13 -32q-7 -15 -18 -15q-12 0 -12 15q0 8 6 107q6 85 9 99q14 63 60 63q34 0 34 -40z" />
    <glyph glyph-name="parenleft" unicode="(" horiz-adv-x="345" 
d="M423 808q0 -9 -10 -19q-19 -18 -56 -55q-98 -108 -155 -260.5t-57 -299.5t73 -267q4 -6 4 -12q0 -21 -24 -21q-20 0 -60 46q-95 110 -95 276q0 183 91.5 353.5t245.5 263.5q15 9 27 9q16 0 16 -14z" />
    <glyph glyph-name="parenright" unicode=")" horiz-adv-x="400" 
d="M374 499q0 -183 -91 -351q-92 -173 -246 -266q-15 -9 -27 -9q-16 0 -16 14q0 9 10 19q19 18 56 55q98 108 155 262q57 151 57 299q0 147 -73 266q-4 7 -4 12q0 22 24 22q20 0 60 -47q95 -110 95 -276z" />
    <glyph glyph-name="asterisk" unicode="*" horiz-adv-x="439" 
d="M465 595q0 -28 -20 -41q-12 -8 -45 -15q-53 -10 -96 -33q26 -20 75.5 -30.5t49.5 -35.5q0 -22 -14.5 -38t-35.5 -16t-46 39q-29 47 -48 57q-8 -37 -8 -64q0 -9 3 -26.5t3 -26.5q0 -24 -13.5 -41.5t-36.5 -17.5q-33 0 -33 32q0 15 26 66q28 55 31 79q-39 -24 -71 -53
q-28 -27 -31 -29q-19 -14 -38 -14q-31 0 -31 32q0 27 25 41q14 8 49 16q54 12 89 31q-22 17 -70 28q-28 7 -37 12q-19 11 -19 33q0 18 14 32.5t32 14.5q22 0 42 -32q24 -39 56 -62q6 35 6 56q0 9 -1.5 27t-1.5 27q0 64 51 64q29 0 29 -33q0 -15 -20 -54q-25 -49 -34 -88
q31 17 73.5 57t62.5 40q33 0 33 -34z" />
    <glyph glyph-name="plus" unicode="+" horiz-adv-x="476" 
d="M431 232q0 -32 -30 -32h-159l-40 -180q-6 -27 -35 -27q-24 0 -24 22q0 7 12 61q10 42 28 124h-156q-22 0 -22 23q0 12 9 21.5t21 9.5h161l39 179q6 28 35 28q24 0 24 -22q0 -7 -12 -61q-9 -41 -28 -124h155q22 0 22 -22z" />
    <glyph glyph-name="comma" unicode="," horiz-adv-x="279" 
d="M189 45q0 -96 -97 -170q-31 -25 -48 -25q-14 0 -14 14q0 12 19 24q70 44 76 103q-8 -5 -23 -5q-46 0 -46 48q0 32 21 56.5t53 24.5q59 0 59 -70z" />
    <glyph glyph-name="hyphen" unicode="-" horiz-adv-x="327" 
d="M292 269q0 -31 -31 -31h-180q-22 0 -22 22q0 13 9 22.5t21 9.5h180q23 0 23 -23z" />
    <glyph glyph-name="hyphen" unicode="&#x2010;" horiz-adv-x="327" 
d="M292 269q0 -31 -31 -31h-180q-22 0 -22 22q0 13 9 22.5t21 9.5h180q23 0 23 -23z" />
    <glyph glyph-name="period" unicode="." horiz-adv-x="266" 
d="M176 62q0 -29 -22 -51.5t-51 -22.5q-23 0 -38 15.5t-15 38.5q0 29 22 51.5t51 22.5q23 0 38 -15.5t15 -38.5z" />
    <glyph glyph-name="slash" unicode="/" horiz-adv-x="402" 
d="M494 712q0 -11 -11 -28l-447 -694q-16 -24 -30 -24q-18 0 -18 17q0 12 11 28l447 695q16 24 30 24q18 0 18 -18z" />
    <glyph glyph-name="zero" unicode="0" horiz-adv-x="535" 
d="M547 487q0 -145 -65 -286q-42 -92 -104 -151q-76 -72 -163 -72q-88 0 -132 75q-36 61 -36 156q0 144 65 286q42 92 104 151q76 72 162 72q88 0 133 -75q36 -62 36 -156zM445 555q0 119 -76 119q-67 0 -118 -96q-41 -76 -72 -213q-31 -133 -31 -223q0 -23 1 -24
q7 -97 76 -97q66 0 118 97q41 77 72 213q30 132 30 224z" />
    <glyph glyph-name="one" unicode="1" horiz-adv-x="416" 
d="M367 700q0 -3 -1 -6l-122 -550q-9 -43 -9 -64q0 -32 23 -42q10 -4 44 -7q24 -1 24 -13q0 -18 -19 -18h-285q-13 0 -13 13q0 15 40 19q47 4 65.5 26t32.5 86l98 443q2 7 2 13q0 14 -19 14h-72q-19 0 -19 13q0 12 24 17q72 15 88 20q41 12 82 40q13 9 23 9q13 0 13 -13z
" />
    <glyph glyph-name="two" unicode="2" horiz-adv-x="528" 
d="M523 576q0 -83 -77 -181q-39 -50 -140.5 -146t-179.5 -159q35 -1 78 -1h56q72 0 99 12.5t75 65.5q9 11 17 11q11 0 11 -11q0 -7 -31 -70q-28 -58 -38 -76q-12 -21 -31 -21h-355q-19 0 -19 15q0 10 12 21q39 30 115 93q72 65 163 168q118 133 118 240q0 45 -26.5 70.5
t-71.5 25.5q-47 0 -89 -28q-21 -13 -65 -66q-9 -10 -16 -10q-11 0 -11 12q0 5 2 11q35 72 97 117q67 50 143 50q72 0 116 -35q48 -37 48 -108z" />
    <glyph glyph-name="three" unicode="3" horiz-adv-x="482" 
d="M473 616q0 -114 -144 -182q61 -4 96.5 -38t35.5 -95q0 -122 -111 -222q-107 -97 -231 -97q-47 0 -84 16q-48 21 -48 62q0 22 14 38.5t36 16.5q23 0 37 -23q23 -39 26 -42q22 -23 67 -23q50 0 97 41q38 34 60 92q21 54 21 108q0 97 -83 97q-12 0 -35.5 -6.5t-34.5 -6.5
q-13 0 -13 10q0 12 23 24q74 42 100 65q47 42 60 101q3 17 3 30q0 64 -71 64q-63 0 -121 -71q-7 -8 -20 -26q-8 -10 -17 -10q-11 0 -11 13q0 5 3 11q35 68 91 109q61 44 133 44q52 0 84 -23q37 -27 37 -77z" />
    <glyph glyph-name="four" unicode="4" horiz-adv-x="492" 
d="M473 275q0 -8 -20 -41q-13 -21 -35 -21h-75l-16 -66q-9 -39 -9 -67q0 -32 23 -42q8 -4 41 -7q22 -2 22 -13q0 -18 -19 -18h-274q-13 0 -13 12q0 16 38 20q46 4 63 26q16 19 30 73q9 41 17 82h-240q-17 0 -17 13q0 9 10 21l377 444q23 27 46 27q27 0 27 -24q0 -4 -1 -8
l-88 -399h97q16 0 16 -12zM325 570l-240 -283h178z" />
    <glyph glyph-name="five" unicode="5" horiz-adv-x="421" 
d="M460 683q0 -16 -26 -58q-13 -22 -35 -22h-180l-43 -106h16h4q92 0 145 -37q63 -43 63 -132q0 -130 -97 -237q-99 -111 -227 -111q-112 0 -112 61q0 21 13.5 38t33.5 17t31 -17l22 -33q18 -18 51 -18q85 0 142 81q52 74 52 162q0 128 -180 128q-24 0 -51 -2l119 299h241
q18 0 18 -13z" />
    <glyph glyph-name="six" unicode="6" horiz-adv-x="478" 
d="M508 725q0 -12 -15 -20q-26 -12 -77 -38q-145 -88 -231 -304q65 59 147 59q66 0 101 -39t35 -106q0 -112 -77 -203q-80 -96 -191 -96q-84 0 -127 56q-40 50 -40 136q0 103 71 238t173 227q114 101 218 101q13 0 13 -11zM361 279q0 94 -72 94q-67 0 -127 -75
q-30 -75 -30 -166q0 -112 80 -112q100 0 139 178q10 46 10 81z" />
    <glyph glyph-name="seven" unicode="7" horiz-adv-x="412" 
d="M492 682q0 -7 -7 -20q-24 -45 -250 -443l-113 -199q-11 -20 -33 -20h-53q-14 0 -14 12q0 6 5 14q17 28 119 187l253 395q-38 2 -101 2q-49 0 -74 -2q-44 -4 -64 -16q-15 -9 -48 -46q-9 -10 -16 -10q-11 0 -11 10q0 5 3 11l57 119q10 20 31 20h294q22 0 22 -14z" />
    <glyph glyph-name="eight" unicode="8" horiz-adv-x="500" 
d="M516 593q0 -69 -53 -123q-38 -37 -115 -76q106 -87 106 -170q0 -101 -77.5 -172.5t-178.5 -71.5q-77 0 -123 31q-55 37 -55 110q0 81 61 144q44 45 133 91q-87 67 -87 155q0 89 74 149q69 57 160 57q66 0 107 -28q48 -33 48 -96zM439 588q0 43 -26.5 66t-69.5 23
q-52 0 -87.5 -35.5t-35.5 -86.5q0 -41 34 -80q16 -18 67 -59q118 73 118 172zM359 175q0 50 -36 92q-23 27 -78 65q-131 -86 -131 -205q0 -47 28.5 -77t75.5 -30q63 0 103 47q38 44 38 108z" />
    <glyph glyph-name="nine" unicode="9" horiz-adv-x="464" 
d="M502 525q0 -51 -12 -104q-34 -143 -167 -294q-147 -168 -282 -168q-15 0 -15 14q0 12 17 20q26 12 77 39q146 89 231 303q-65 -59 -147 -59q-66 0 -101 39t-35 106q0 113 76 202q80 93 191 93q84 0 127 -55q40 -50 40 -136zM405 567q0 110 -75 110q-106 0 -145 -176
q-9 -40 -9 -72q0 -99 77 -99q40 0 82 32q30 23 41 45.5t20 77.5q9 49 9 82z" />
    <glyph glyph-name="colon" unicode=":" horiz-adv-x="310" 
d="M220 273q0 -28 -22 -51t-51 -23q-23 0 -38 16t-15 39q0 29 22 51.5t51 22.5q23 0 38 -15.5t15 -39.5zM188 61q0 -29 -22 -51.5t-51 -22.5q-23 0 -38 15.5t-15 38.5q0 29 22 51.5t51 22.5q23 0 38 -15.5t15 -38.5z" />
    <glyph glyph-name="semicolon" unicode=";" horiz-adv-x="313" 
d="M223 273q0 -29 -22 -51.5t-51 -22.5q-23 0 -38 15.5t-15 38.5q0 29 22 51.5t51 22.5q23 0 38 -15.5t15 -38.5zM201 45q0 -96 -97 -171q-31 -24 -48 -24q-14 0 -14 14q0 12 19 24q70 43 76 103q-8 -5 -23 -5q-46 0 -46 48q0 32 21 56.5t53 24.5q59 0 59 -70z" />
    <glyph glyph-name="less" unicode="&#x3c;" horiz-adv-x="466" 
d="M433 423q0 -6 -5 -24.5t-24 -29.5q-1 -1 -170 -101q-27 -16 -81 -49q62 -50 185 -153q11 -10 11 -20q0 -16 -6 -39q-9 -29 -21 -29q-8 0 -13 4l-255 214q-5 4 -5 11q0 11 12 19q19 12 157 93l190 112q7 4 13 4q12 0 12 -12z" />
    <glyph glyph-name="equal" unicode="=" horiz-adv-x="502" 
d="M457 288q0 -31 -30 -31h-374q-22 0 -22 22q0 13 9 22.5t21 9.5h374q22 0 22 -23zM431 176q0 -31 -30 -31h-374q-22 0 -22 22q0 13 9 22t21 9h374q22 0 22 -22z" />
    <glyph glyph-name="greater" unicode="&#x3e;" horiz-adv-x="452" 
d="M415 205q0 -11 -13 -19l-346 -204q-7 -4 -13 -4q-12 0 -12 12q0 3 5 24q4 18 23 30l252 149l-185 154q-12 9 -12 20q0 13 10 48q6 20 18 20q7 0 13 -5l254 -214q6 -4 6 -11z" />
    <glyph glyph-name="question" unicode="?" horiz-adv-x="419" 
d="M435 560q0 -77 -58 -144q-27 -31 -119 -104q-37 -29 -53 -52q-19 -28 -25 -68q-5 -30 -20 -30q-19 0 -28 34q-7 25 -7 51q0 71 63 132q59 49 118 97q63 59 63 127q0 59 -54 59q-29 0 -66 -37t-64 -37q-43 0 -43 43q0 44 44 67q35 20 82 20q70 0 118.5 -44.5t48.5 -113.5z
M200 60q0 -28 -21 -50.5t-50 -22.5q-23 0 -38.5 16t-15.5 40q0 28 21.5 50t49.5 22q23 0 38.5 -16t15.5 -39z" />
    <glyph glyph-name="at" unicode="@" horiz-adv-x="802" 
d="M791 495q0 -84 -43 -174q-44 -93 -110 -139q-54 -39 -103 -39q-63 0 -63 68q0 14 3 29q-86 -98 -160 -98q-79 0 -79 88q0 106 88 209q91 107 195 107q41 0 58 -24q10 36 36 36q6 0 16 -1h16q11 0 11 -11q0 -3 -2 -8l-95 -238q-17 -42 -17 -67q0 -32 30 -32q22 0 52 22
q51 36 88 120q33 79 33 147q0 87 -62 133q-55 42 -144 42q-159 0 -274 -133q-110 -128 -110 -289q0 -100 58.5 -153.5t158.5 -53.5q75 0 192 52q6 3 11 3q11 0 11 -11q0 -14 -46 -38q-97 -50 -195 -50q-116 0 -188 67t-72 183q0 57 17 114q44 152 164 249q124 100 280 100
q105 0 172 -51q73 -57 73 -159zM541 458q0 48 -44 48q-65 0 -121 -94q-51 -83 -51 -153q0 -54 44 -54q27 0 63 34q27 26 48 58q17 27 30 59q6 18 21 53q10 27 10 49z" />
    <glyph glyph-name="A" unicode="A" horiz-adv-x="661" 
d="M616 18q0 -18 -18 -18h-269q-13 0 -13 12q0 16 29 19q44 3 53 7q29 11 29 50q0 9 -5 53l-10 101h-198l-67 -123q-24 -44 -24 -61q0 -19 30 -25q22 -2 45 -4q11 -2 11 -11q0 -18 -20 -18h-211q-13 0 -13 12q0 14 17 17q29 5 36 8q15 5 31.5 20t62.5 96l305 540
q10 18 25 18q17 0 19 -18l70 -540q3 -24 6 -49q5 -29 14 -46q12 -22 41 -27q24 -4 24 -13zM408 285l-26 261l-144 -261h170z" />
    <glyph glyph-name="B" unicode="B" horiz-adv-x="596" 
d="M617 578q0 -67 -43.5 -117.5t-109.5 -67.5q127 -25 127 -140q0 -107 -90 -183q-82 -70 -210 -70h-270q-12 0 -12 11q0 16 32 19q40 5 58 27q11 14 29 94l87 394q12 54 12 74q0 36 -41 36q-6 0 -17 -1t-16 -1q-13 0 -13 11q0 13 18 19q8 3 38 8q108 16 205 16
q216 0 216 -129zM502 581q0 88 -106 88q-28 0 -49 -6l-56 -255h36q72 0 110 27q42 29 59 96q6 27 6 50zM468 262q0 109 -149 109h-36l-58 -260q-5 -24 -5 -39q0 -34 50 -34h5q148 0 186 168q7 30 7 56z" />
    <glyph glyph-name="C" unicode="C" horiz-adv-x="637" 
d="M702 679v-6l-20 -113q-2 -16 -8 -48q-5 -16 -17 -16t-12 16v5q1 4 1 5q0 76 -43.5 115.5t-120.5 39.5t-146 -56q-59 -48 -99 -124q-60 -117 -60 -247q0 -90 40 -142q45 -59 132 -59q119 0 218 91l40 40q9 8 16 8q10 0 10 -10q0 -6 -6 -14q-60 -82 -137 -131
q-87 -54 -179 -54q-123 0 -192.5 70.5t-69.5 193.5q0 184 127 327q131 147 313 147q78 0 157 -40q13 -7 19 -7t13 9.5t14 9.5q10 0 10 -10z" />
    <glyph glyph-name="D" unicode="D" horiz-adv-x="727" 
d="M758 455q0 -97 -43.5 -191.5t-116.5 -158.5q-122 -105 -317 -105h-261q-11 0 -11 12q0 15 32 19q40 4 58 27q11 14 29 93l87 395q12 53 12 73q0 36 -41 36q-6 0 -18 -1t-18 -1q-11 0 -11 11q0 13 19 20q27 10 121 17q81 7 129 7q158 0 241 -46q109 -61 109 -207zM635 467
q0 99 -56 151t-156 52q-41 0 -76 -6l-119 -542q-5 -21 -5 -35q0 -32 26 -42q15 -6 52 -6h1q250 0 322 332q11 51 11 96z" />
    <glyph glyph-name="E" unicode="E" horiz-adv-x="569" 
d="M610 678v-5l-22 -132q-3 -18 -16 -18q-12 0 -14 12l-10 78q-12 41 -57 45q-15 1 -41 1h-10q-33 0 -51 -1q-24 -1 -32 -7t-13 -29l-52 -233h78q57 0 76 8q24 12 39 51q13 34 24 34t11 -11q0 -7 -23 -108q-7 -36 -24 -106q-4 -15 -16 -15t-12 12q0 7 2 20.5t2 20.5
q0 55 -90 55h-75l-60 -274q-3 -13 -3 -19q0 -16 32.5 -17t73.5 -1h12q25 0 40 1q47 4 81 45q5 6 52 81q8 11 17 11q10 0 10 -11q0 -4 -21.5 -70.5t-24.5 -74.5q-10 -21 -29 -21h-448q-11 0 -11 11q0 15 35 20q44 6 60.5 25t33.5 95l87 394q11 52 11 73q0 30 -21 40
q-8 4 -38 8q-21 2 -21 13q0 17 18 17h422q18 0 18 -18z" />
    <glyph glyph-name="F" unicode="F" horiz-adv-x="537" 
d="M608 678v-5l-23 -132q-3 -18 -18 -18q-9 0 -11 12q-6 40 -11 80q-14 42 -62 42l-90 1q-23 0 -32 -7.5t-13 -29.5l-52 -233h70q53 0 71 9q24 11 39 50q13 35 24 35t11 -11q0 -5 -8 -45q-8 -35 -23 -100q-4 -24 -15 -70q-5 -15 -18 -15q-11 0 -11 12q0 7 2.5 20.5t2.5 20.5
q0 55 -92 55h-61l-44 -198q-10 -47 -10 -68q0 -32 23 -43q10 -5 42 -9q23 -3 23 -14q0 -17 -18 -17h-284q-11 0 -11 12q0 14 35 19q44 6 60.5 25.5t33.5 94.5l87 394q11 52 11 73q0 30 -21 40q-8 4 -38 8q-21 2 -21 13q0 17 18 17h415q19 0 19 -18z" />
    <glyph glyph-name="G" unicode="G" horiz-adv-x="694" 
d="M725 304q0 -13 -27 -19q-33 -8 -48 -27q-10 -14 -50 -193q-123 -86 -273 -86q-122 0 -195 72t-73 194q0 184 127 325q130 147 312 147q81 0 146 -36q19 -10 26 -10q6 0 12.5 9.5t15.5 9.5t9 -11v-5l-20 -114q-2 -18 -10 -51q-5 -13 -14 -13q-13 0 -13 18v5v5
q0 73 -40 113t-114 40q-139 0 -230 -148q-79 -129 -79 -277q0 -98 46 -153q50 -58 146 -58q57 0 115 27l21 97q11 47 11 63q0 34 -24 47q-11 6 -45 10q-24 2 -24 13q0 18 18 18h261q13 0 13 -12z" />
    <glyph glyph-name="H" unicode="H" horiz-adv-x="809" 
d="M870 684q0 -15 -35 -19q-43 -6 -60 -26t-34 -94l-87 -394q-11 -52 -11 -73q0 -30 21 -40q8 -4 38 -8q21 -2 21 -12q0 -18 -18 -18h-274q-12 0 -12 11q0 15 35 20q43 6 60.5 26t33.5 94l44 199h-304l-44 -199q-11 -52 -11 -73q0 -30 20 -40q9 -4 39 -8q21 -2 21 -13
q0 -17 -18 -17h-274q-12 0 -12 11q0 16 35 20q44 6 60.5 25.5t33.5 94.5l87 394q11 52 11 73q0 30 -21 40q-8 4 -38 7q-21 3 -21 14q0 17 18 17h273q13 0 13 -12q0 -15 -35 -19q-43 -6 -60.5 -26t-33.5 -94l-34 -153h304l34 153q11 52 11 73q0 30 -20 40q-9 4 -39 7
q-21 3 -21 13q0 18 18 18h274q12 0 12 -12z" />
    <glyph glyph-name="I" unicode="I" horiz-adv-x="401" 
d="M471 684q0 -15 -35 -19q-43 -6 -60 -26t-34 -94l-87 -394q-11 -52 -11 -73q0 -30 20 -40q9 -4 39 -8q21 -2 21 -13q0 -17 -18 -17h-274q-12 0 -12 12q0 14 36 19q43 6 59.5 25.5t33.5 94.5l87 394q11 52 11 73q0 30 -21 40q-8 4 -38 7q-21 3 -21 14q0 17 18 17h274
q12 0 12 -12z" />
    <glyph glyph-name="J" unicode="J" horiz-adv-x="375" 
d="M446 684q0 -14 -33 -19q-40 -7 -57 -27q-12 -14 -27 -83l-80 -362q-38 -172 -102 -257q-88 -115 -197 -115q-25 0 -45 8q-26 11 -26 33q0 15 19.5 43.5t32.5 28.5q10 0 27.5 -23t44.5 -23q55 0 82 63q7 18 28 110l106 484q12 52 12 71q0 30 -22 41q-9 4 -41 8
q-22 2 -22 14q0 17 18 17h270q12 0 12 -12z" />
    <glyph glyph-name="K" unicode="K" horiz-adv-x="703" 
d="M784 685q0 -14 -18 -18q-26 -4 -51.5 -9t-50 -22.5t-51.5 -46.5q-23 -26 -46 -51q-84 -89 -163 -134q41 -22 77 -97q23 -49 67 -148q37 -91 69 -115q19 -15 55 -15q11 0 11 -12q0 -17 -18 -17h-283q-12 0 -12 12q0 15 38 19.5t38 34.5q0 22 -23 78l-59 140q-14 34 -25 48
q-19 22 -47 24l-46 -205q-11 -52 -11 -73q0 -30 20 -40q9 -4 39 -8q21 -2 21 -12q0 -18 -18 -18h-277q-11 0 -11 11q0 15 35 20q43 6 61 27q16 18 32 93l87 394q12 52 12 73q0 30 -21 40q-9 4 -39 8q-20 2 -20 13q0 17 18 17h276q12 0 12 -12q0 -14 -35 -19
q-43 -6 -60 -25.5t-34 -94.5l-33 -151q79 20 185 121q92 87 92 130q0 17 -26.5 20.5t-26.5 14.5q0 16 18 16h231q11 0 11 -11z" />
    <glyph glyph-name="L" unicode="L" horiz-adv-x="542" 
d="M533 166q0 -16 -67 -146q-10 -20 -32 -20h-413q-12 0 -12 12q0 14 36 19q43 6 61 27q15 18 32 93l87 394q11 52 11 73q0 30 -20 40q-9 4 -39 8q-21 2 -21 13q0 17 18 17h274q12 0 12 -12q0 -14 -36 -19q-43 -6 -59.5 -26t-33.5 -94l-103 -469q-3 -13 -3 -18q0 -17 32 -18
q28 -1 60 -1h14q43 0 62 9q26 12 62 53q26 33 53 65q8 10 15 10q10 0 10 -10z" />
    <glyph glyph-name="M" unicode="M" horiz-adv-x="892" 
d="M953 684q0 -15 -35 -19q-43 -5 -60 -26q-19 -24 -28 -93l-37 -272q-22 -158 -22 -184q0 -35 13 -46q8 -7 46 -15q12 -2 12 -12q0 -17 -18 -17h-271q-11 0 -11 12q0 15 35 19q43 5 60.5 25.5t28.5 93.5l58 392l-317 -536q-10 -17 -26 -17q-15 0 -17 17l-85 551l-112 -407
q-15 -55 -15 -79q0 -26 20 -34q7 -3 38 -7q21 -2 21 -13q0 -17 -18 -17h-212q-12 0 -12 12q0 13 31 19q38 8 54 26q20 23 41 94l113 395q15 52 15 76q0 28 -21 37q-7 3 -37 7q-21 2 -21 13q0 17 18 17h164q17 0 23.5 -4t8.5 -21l74 -504l298 505q15 24 39 24h153
q11 0 11 -12z" />
    <glyph glyph-name="N" unicode="N" horiz-adv-x="757" 
d="M858 684q0 -15 -35 -19q-43 -6 -59.5 -25.5t-33.5 -94.5l-116 -525q-6 -31 -31 -31q-18 0 -27 18l-277 554l-90 -411q-12 -52 -12 -73q0 -29 22 -39q8 -4 40 -8q22 -2 22 -13q0 -17 -18 -17h-222q-12 0 -12 12q0 14 35 19q44 6 60.5 25.5t32.5 93.5l87 394q10 45 10 69
q0 33 -22 44q-9 5 -40 8q-21 2 -21 14q0 17 18 17l153 -1q23 0 35 -23l242 -490l80 363q11 52 11 73q0 30 -21 40q-8 4 -38 7q-21 3 -21 14q0 17 18 17h219q11 0 11 -12z" />
    <glyph glyph-name="O" unicode="O" horiz-adv-x="724" 
d="M765 438q0 -179 -132 -318q-135 -142 -312 -142q-127 0 -204.5 76.5t-77.5 203.5q0 178 133.5 318.5t311.5 140.5q126 0 203.5 -76.5t77.5 -202.5zM633 449q0 93 -36 152q-43 73 -130 73h-2q-50 0 -100 -26q-93 -49 -146 -175q-47 -109 -47 -227q0 -93 36 -153
q44 -73 130 -73h2q50 0 101 27q92 49 146 174q46 110 46 228z" />
    <glyph glyph-name="P" unicode="P" horiz-adv-x="550" 
d="M621 549q0 -25 -6 -50q-22 -97 -93.5 -153.5t-171.5 -56.5q-44 0 -79 12l-33 -150q-11 -49 -11 -70q0 -31 23 -42q10 -4 43 -8q23 -2 23 -14q0 -17 -18 -17h-277q-12 0 -12 12q0 15 33 19q40 4 57 26q12 15 29 94l87 395q12 54 12 74q0 36 -41 36q-6 0 -18 -1t-18 -1
q-10 0 -10 11q0 13 18 19q32 11 120 18q74 6 124 6q91 0 148 -33q71 -41 71 -126zM505 562q0 109 -108 109q-30 0 -46 -5l-73 -331q28 -5 53 -5q129 0 166 168q8 36 8 64z" />
    <glyph glyph-name="Q" unicode="Q" horiz-adv-x="726" 
d="M767 438q0 -161 -109 -293t-267 -160q94 -70 236 -97q22 -4 66 -11q13 -2 13 -12q0 -20 -24 -20q-31 0 -89 6q-138 14 -253 52q-147 49 -219 129q-82 90 -82 219q0 178 135 322t311 144q127 0 204.5 -76.5t77.5 -202.5zM635 449q0 92 -36 152q-44 73 -130 73h-2
q-50 0 -101 -26q-92 -49 -146 -175q-46 -109 -46 -227q0 -93 36 -153q43 -73 130 -73h2q50 0 100 27q93 49 146 174q47 109 47 228z" />
    <glyph glyph-name="R" unicode="R" horiz-adv-x="685" 
d="M656 16q0 -19 -57 -19h-12.5h-8.5h-16.5h-15.5q-87 0 -117 53q-37 65 -95 264h-16q-24 0 -47 3l-36 -166q-11 -47 -11 -69q0 -32 23 -43q10 -4 43 -8q23 -2 23 -14q0 -17 -18 -17h-274q-12 0 -12 12q0 15 33 19q40 4 57 26q12 14 29 94l87 395q12 55 12 73q0 36 -42 36
q-6 0 -17.5 -1t-16.5 -1q-11 0 -11 11q0 13 18 20q73 24 247 24q232 0 232 -146q0 -83 -55 -148q-53 -61 -135 -84q45 -134 81 -205q39 -75 89 -90q12 -2 23 -4q16 -5 16 -15zM519 570q0 100 -117 100q-30 0 -54 -5l-67 -307q24 -3 47 -3q81 0 125 41q41 37 59 118
q7 31 7 56z" />
    <glyph glyph-name="S" unicode="S" horiz-adv-x="470" 
d="M521 678q0 -5 -2 -12l-24 -108q-4 -19 -19 -19q-12 0 -12 13q0 7 2 20.5t2 19.5q0 81 -93 81q-56 0 -98 -35q-45 -37 -45 -91q0 -50 58 -99q54 -43 109 -86q58 -56 58 -123q0 -31 -9 -65q-26 -92 -101 -144q-71 -50 -169 -50q-40 0 -85 10q-64 13 -64 38q0 4 1 10l14 84
q2 14 7 43q4 20 18 20q13 0 13 -19v-7.5v-6.5q0 -125 115 -125q66 0 110 44.5t44 110.5q0 53 -57 102q-52 41 -105 83q-56 56 -56 125q0 102 79 165q73 58 176 58q83 0 120 -19q13 -7 13 -18z" />
    <glyph glyph-name="T" unicode="T" horiz-adv-x="557" 
d="M658 715q0 -5 -13 -115q-5 -48 -5 -51q0 -16 -17 -16q-12 0 -12 17v6.5v5.5q0 53 -23 74t-77 21h-74l-112 -506q-10 -47 -10 -67q0 -32 23 -44q10 -5 43 -9q22 -3 22 -14q0 -17 -17 -17h-293q-12 0 -12 12q0 15 18 17q45 6 47 7q23 6 40.5 25t32.5 90l112 506h-75
q-55 0 -90 -23q-26 -18 -58 -87q-7 -14 -16 -14q-13 0 -13 11q0 4 25 81q24 74 29.5 88.5t18.5 14.5q11 0 11 -12v-4q-1 -3 -1 -4q0 -12 20 -12h419q22 0 28 16t18 16q11 0 11 -13z" />
    <glyph glyph-name="U" unicode="U" horiz-adv-x="702" 
d="M823 681q0 -11 -36 -16q-42 -6 -59 -25t-33 -95l-60 -271q-29 -129 -106 -206q-85 -85 -210 -85q-210 0 -210 190q0 45 12 101l60 271q12 53 12 74q0 29 -21 39q-8 4 -39 7q-21 3 -21 14q0 17 18 17h275q11 0 11 -12q0 -15 -35 -19q-43 -6 -60 -25t-34 -95l-56 -258
q-14 -64 -14 -110q0 -133 129 -133q184 0 238 243l57 258q11 53 11 74q0 29 -21 39q-7 4 -38 7q-21 3 -21 14q0 17 18 17h222q11 0 11 -15z" />
    <glyph glyph-name="V" unicode="V" horiz-adv-x="639" 
d="M760 684q0 -14 -17 -17q-30 -6 -37 -8q-14 -5 -30 -21q-23 -21 -62 -95l-268 -494q-8 -17 -27 -50q-12 -17 -28 -17q-19 0 -22 17l-76 544q-4 38 -19 95q-12 24 -41 27q-24 3 -24 14q0 17 18 17h268q11 0 11 -14q0 -13 -41 -17q-46 -4 -58 -23q-7 -11 -7 -36q0 -16 4 -51
l45 -405l214 397q36 65 36 90q0 21 -29 25q-21 3 -43 5q-11 3 -11 12q0 17 18 17h215q11 0 11 -12z" />
    <glyph glyph-name="W" unicode="W" horiz-adv-x="932" 
d="M1053 684q0 -14 -18 -18q-28 -4 -36 -8q-15 -5 -31 -20q-21 -20 -61 -95l-291 -539q-12 -22 -32 -22q-23 0 -26 23l-44 349l-193 -351q-11 -21 -33 -21q-20 0 -24 21q-1 8 -15 112l-31 235q-9 64 -25 193q-7 72 -19 95t-41 27q-24 3 -24 14q0 17 18 17h233q11 0 11 -12
q0 -14 -19 -17q-28 -6 -36 -11q-20 -13 -20 -49q0 -14 5 -51l47 -412l157 281q-6 55 -13 111q-11 81 -22 103t-36 26q-21 4 -21 14q0 17 18 17h248q12 0 12 -13q0 -15 -25 -17q-37 -4 -47 -8q-25 -12 -25 -52q0 -16 4 -51l44 -408l215 399q37 68 37 90q0 21 -29 26l-44 4
q-11 3 -11 13q0 17 18 17h213q12 0 12 -12z" />
    <glyph glyph-name="X" unicode="X" horiz-adv-x="673" 
d="M744 684q0 -14 -19 -18q-44 -7 -73 -28.5t-93 -93.5l-135 -151l88 -239q12 -33 20 -50q13 -30 25 -45q18 -22 58 -30q12 -2 12 -12q0 -17 -18 -17h-265q-11 0 -11 12q0 13 21 17q36 7 38 8q20 8 20 32q0 17 -22 78l-56 151l-133 -150q-64 -73 -64 -95q0 -18 28 -21.5
t28 -14.5q0 -17 -19 -17h-204q-11 0 -11 12q0 14 19 17q39 6 73 30q41 29 99 95l168 190l-73 198q-13 34 -20 49q-12 29 -26 46q-18 21 -58 29q-11 3 -11 12q0 18 18 18h265q11 0 11 -12q0 -13 -20 -17q-37 -8 -38 -8q-21 -9 -21 -33q0 -17 22 -78l41 -110q29 34 89 100
q77 83 77 105q0 19 -27.5 21.5t-27.5 13.5q0 18 18 18h196q11 0 11 -12z" />
    <glyph glyph-name="Y" unicode="Y" horiz-adv-x="627" 
d="M743 684q0 -14 -17 -17q-28 -5 -37 -8q-15 -6 -32 -21q-20 -18 -75 -95l-179 -250l-31 -143q-12 -54 -12 -74q0 -29 20 -38q9 -4 39 -8q21 -2 21 -13q0 -17 -18 -17h-273q-12 0 -12 12q0 14 35 19q43 6 60 26t34 93l31 142l-90 257q-11 34 -36 89q-12 16 -25 21
q-2 1 -31 8q-11 2 -11 12q0 17 18 17h257q12 0 12 -12q0 -15 -22 -18l-42 -5q-22 -7 -22 -33q0 -21 15 -65l72 -209q45 65 139 194q48 64 48 90q0 23 -34.5 26.5t-34.5 14.5q0 17 18 17h204q11 0 11 -12z" />
    <glyph glyph-name="Z" unicode="Z" horiz-adv-x="528" 
d="M619 684q0 -7 -11 -22l-488 -618q55 -7 131 -7q60 0 95 4q47 5 81 41q17 18 42 62q19 32 29 32q12 0 12 -11q0 -3 -21.5 -69.5t-25.5 -74.5q-9 -21 -28 -21h-443q-13 0 -13 11q0 8 12 24l489 620q-51 4 -116 4q-103 0 -131 -16q-31 -17 -79 -107q-9 -15 -20 -15
q-12 0 -12 12q0 5 17 67q16 59 20 73q8 23 29 23h416q15 0 15 -12z" />
    <glyph glyph-name="bracketleft" unicode="[" horiz-adv-x="433" 
d="M457 815q0 -23 -21 -23h-65l-196 -888h65q13 0 13 -14q0 -23 -21 -23h-139q-21 0 -21 20q0 3 1 8l200 906q6 28 32 28h139q13 0 13 -14z" />
    <glyph glyph-name="backslash" unicode="\" horiz-adv-x="523" 
d="M456 -58q0 -21 -18 -21q-17 0 -28 31l-268 781q-5 14 -5 23q0 20 18 20q17 0 28 -31l269 -781q4 -13 4 -22z" />
    <glyph glyph-name="bracketright" unicode="]" horiz-adv-x="449" 
d="M428 809q0 -4 -1 -8l-200 -906q-6 -28 -33 -28h-138q-13 0 -13 14q0 23 21 23h65l196 888h-65q-13 0 -13 13q0 24 21 24h138q22 0 22 -20z" />
    <glyph glyph-name="asciicircum" unicode="^" horiz-adv-x="554" 
d="M512 330q0 -23 -24 -23h-42q-22 0 -27 21l-65 278l-189 -277q-11 -16 -23 -20q-8 -3 -30 -3q-27 0 -27 15q0 8 7 17l240 336q16 22 38 22h5.5h5.5q31 0 37 -22l84 -305q10 -35 10 -39z" />
    <glyph glyph-name="underscore" unicode="_" horiz-adv-x="566" 
d="M641 -158h-566v64h566v-64z" />
    <glyph glyph-name="grave" unicode="`" horiz-adv-x="349" 
d="M319 484q0 -12 -13 -12q-5 0 -49.5 34t-52.5 43q-14 15 -14 30q0 32 32 32q15 0 30 -16q8 -10 37 -56q30 -49 30 -55z" />
    <glyph glyph-name="a" unicode="a" horiz-adv-x="406" 
d="M397 63q0 -5 -7 -12q-22 -22 -56 -41q-38 -21 -65 -21q-40 0 -40 53q0 4 1 8q-69 -61 -124 -61q-33 0 -55 19t-22 52q0 69 88 117q46 25 148 53q8 29 15 57q8 35 8 58q0 47 -46 47q-25 0 -43.5 -16.5t-18.5 -40.5q0 -12 6 -23q-75 -38 -79 -38q-16 0 -16 25
q0 36 67.5 85.5t120.5 49.5q37 0 66 -23t29 -59q0 -17 -11 -69l-43 -196q-3 -12 -3 -20q0 -20 18 -20q12 0 31 11.5t23 11.5q8 0 8 -7zM258 200q-62 -20 -89 -36q-50 -31 -50 -76t45 -45q38 0 67 33z" />
    <glyph glyph-name="b" unicode="b" horiz-adv-x="501" 
d="M492 300q0 -122 -84 -215q-87 -97 -207 -97q-86 0 -142 24l133 600q4 22 4 29q0 17 -33.5 24t-33.5 18q0 7 14.5 12.5t81 27t70.5 21.5q8 0 8 -8v-5l-82 -371q104 73 150 73q59 0 90 -36.5t31 -96.5zM397 271q0 99 -80 99q-44 0 -104 -45l-41 -188q-9 -39 -9 -59
q0 -51 59 -51q79 0 131 86q44 74 44 158z" />
    <glyph glyph-name="c" unicode="c" horiz-adv-x="400" 
d="M421 374q0 -7 -13.5 -34t-20 -36.5t-14.5 -9.5q-9 0 -9.5 10t-1.5 27q-8 65 -68 65q-72 0 -120 -79q-40 -68 -40 -145q0 -51 25 -83q28 -36 77 -36q45 0 91.5 33l46.5 33q10 0 10 -9q0 -8 -10 -21q-81 -101 -183 -101q-68 0 -107.5 40.5t-39.5 108.5q0 108 76 199
q81 96 186 96q89 0 113 -49q2 -4 2 -9z" />
    <glyph glyph-name="d" unicode="d" horiz-adv-x="546" 
d="M562 737q0 -2 -1 -5l-142 -645q-3 -13 -3 -21q0 -19 16 -19q13 0 37 15t29 15q7 0 7 -8q0 -5 -8 -13q-24 -25 -59 -44q-41 -22 -69 -22q-39 0 -39 53q0 15 4 32q-115 -86 -162 -86q-60 0 -93 42q-30 37 -30 99q0 114 81 207q85 96 197 96q49 0 78 -25l45 208q5 20 5 26
q0 17 -34 24t-34 18q0 7 16 13q132 48 151 48q8 0 8 -8zM383 323q0 34 -21 53.5t-56 19.5q-74 0 -122 -82q-42 -70 -42 -151q0 -45 18 -74q21 -36 63 -36q51 0 117 61l40 180q3 15 3 29z" />
    <glyph glyph-name="e" unicode="e" horiz-adv-x="401" 
d="M391 354q0 -85 -90 -135q-72 -41 -167 -46q-1 -9 -1 -18q0 -108 96 -108q41 0 74 21q19 12 43 38q19 21 25 21q10 0 10 -11q0 -6 -5 -15q-29 -51 -79.5 -81.5t-107.5 -30.5q-69 0 -109.5 40.5t-40.5 109.5q0 88 53 165q36 53 91 89q61 39 119 39q39 0 64 -20t25 -58z
M315 355q0 41 -37 41q-52 0 -95 -72q-34 -57 -46 -119q150 2 177 132q1 10 1 18z" />
    <glyph glyph-name="f" unicode="f" horiz-adv-x="350" 
d="M531 698q0 -13 -16 -36.5t-28 -23.5q-6 0 -36 24.5t-61 24.5q-47 0 -85 -52q-24 -34 -42 -102q-12 -56 -24 -111h126q9 0 9 -7q0 -2 -1 -6q-16 -41 -30 -41h-116l-55 -257q-52 -237 -214 -338q-49 -31 -94 -31q-24 0 -47 11q-28 13 -28 34q0 13 18 36t31 23q8 0 31 -18.5
t49 -18.5q103 0 151 219l74 340h-63q-13 0 -13 11q0 13 33 21q41 11 47.5 17t10.5 17q37 104 41 113q26 61 63 102q90 98 179 98q50 0 80 -30q10 -10 10 -19z" />
    <glyph glyph-name="g" unicode="g" horiz-adv-x="490" 
d="M549 412q0 -3 -1 -7q-17 -47 -33 -47q-15 0 -41 4q-31 3 -42 4h-2h-1q-6 0 -6 -6v-3q9 -31 9 -48q0 -78 -64 -126q-56 -42 -139 -49q-96 -9 -96 -50q0 -21 37 -23l153 -12q55 -4 81 -18q39 -21 39 -68q0 -97 -117 -158q-97 -51 -203 -51q-56 0 -93 19q-48 24 -48 74
q0 77 154 140q-84 14 -84 69q0 47 108 94q-74 27 -74 107q0 75 64 128q60 49 137 49q78 0 121 -53q6 13 13 27t19 14h96q13 0 13 -10zM347 298q0 41 -16 68q-20 33 -58 33q-47 0 -74 -43q-22 -36 -22 -87q0 -40 17 -68q19 -32 57 -32q47 0 74 43q22 36 22 86zM355 -80
q0 45 -73 52q-67 6 -85 6q-8 0 -29 -8q-88 -32 -88 -97q0 -73 107 -73q61 0 110 29q58 34 58 91z" />
    <glyph glyph-name="h" unicode="h" horiz-adv-x="517" 
d="M508 70q0 -5 -7 -13q-24 -25 -60 -45q-41 -22 -70 -22q-42 0 -42 54q0 18 5 40l36 150q18 75 18 102q0 42 -36 42q-15 0 -31 -8q-51 -28 -96 -100q-40 -65 -54 -128l-26 -118q-5 -25 -41 -25q-45 1 -45 21q0 3 1 7l129 585q5 22 5 29q0 17 -34 24t-34 18q0 7 15 13
q137 48 152 48q8 0 8 -8q0 -2 -1 -4l-98 -450q85 150 195 150q74 0 74 -85q0 -32 -9 -76l-40 -184q-3 -13 -3 -21q0 -19 16 -19q13 0 36.5 15t28.5 15q8 0 8 -7z" />
    <glyph glyph-name="i" unicode="i" horiz-adv-x="291" 
d="M297 629q0 -26 -18 -47t-44 -21q-21 0 -33.5 14.5t-12.5 35.5q0 26 18 47.5t44 21.5q21 0 33.5 -15t12.5 -36zM257 68q0 -6 -7 -13q-68 -67 -130 -67q-41 0 -41 55q0 15 4 33l50 222q4 22 4 29q0 17 -33.5 24.5t-33.5 15.5q0 10 15 15q140 48 151 48q8 0 8 -8v-4
l-73 -333q-3 -13 -3 -21q0 -19 16 -19q13 0 36 15t29 15q8 0 8 -7z" />
    <glyph glyph-name="j" unicode="j" horiz-adv-x="257" 
d="M302 630q0 -26 -18.5 -47.5t-44.5 -21.5q-20 0 -33 15t-13 36q0 26 18.5 47.5t44.5 21.5q20 0 33 -15t13 -36zM249 423q0 -2 -1 -5l-73 -332q-30 -138 -88 -207q-83 -98 -172 -98q-23 0 -46 9q-29 12 -29 32q0 14 16 36.5t29 22.5q8 0 28 -20t50 -20q55 0 81 61
q9 20 29 109l64 288q5 21 5 29q0 17 -33.5 24t-33.5 18q0 7 15 13q9 3 78.5 25.5t72.5 22.5q8 0 8 -8z" />
    <glyph glyph-name="k" unicode="k" horiz-adv-x="495" 
d="M516 412q0 -14 -16 -17q-22 -3 -64 -16q-33 -14 -72 -49q-32 -29 -65 -59q52 -225 106 -225q17 0 39.5 13t24.5 13q8 0 8 -7q0 -6 -9 -15q-22 -20 -56 -38q-39 -22 -63 -22q-38 0 -71 75q-25 53 -49 149q-29 -23 -45 -33l-39 -157q-6 -25 -42 -25q-44 1 -44 21q0 3 1 7
l129 588q5 22 5 29q0 17 -33.5 24t-33.5 18q0 7 15 13q137 48 152 48q7 0 7 -8v-5l-105 -500q37 20 87 64q62 54 62 80q0 14 -23 16t-23 12q0 16 18 16h188q11 0 11 -10z" />
    <glyph glyph-name="l" unicode="l" horiz-adv-x="271" 
d="M290 735v-5l-142 -645q-3 -13 -3 -21q0 -19 17 -19q14 0 36.5 15t27.5 15q8 0 8 -7q0 -6 -7 -14q-68 -67 -130 -67q-41 0 -41 55q0 15 4 34l118 535q5 22 5 29q0 17 -33.5 24.5t-33.5 15.5q0 10 15 15q141 48 151 48q8 0 8 -8z" />
    <glyph glyph-name="m" unicode="m" horiz-adv-x="772" 
d="M753 68q0 -6 -7 -13q-23 -25 -60 -45q-41 -22 -70 -22q-42 0 -42 54q0 17 6 39l36 153q20 81 20 103q0 41 -35 41q-15 0 -31 -9q-52 -28 -96 -111q-38 -70 -53 -141q-6 -32 -19 -94q-6 -24 -41 -24h-6h-7q-33 0 -33 20q0 3 1 7l46 208q19 88 19 104q0 40 -34 40
q-15 0 -31 -9q-50 -26 -92 -100q-37 -64 -52 -128l-25 -117q-5 -25 -41 -25q-45 1 -45 20q0 4 1 8l59 272q5 22 5 29q0 17 -33.5 24t-33.5 18q0 7 15 13q133 48 151 48q8 0 8 -8q0 -5 -7 -41q-7 -30 -21 -91q82 140 184 140q74 0 74 -84q0 -26 -7 -61q83 145 187 145
q74 0 74 -84q0 -32 -10 -76l-40 -186q-3 -13 -3 -21q0 -19 16 -19q13 0 36.5 15t29.5 15q7 0 7 -7z" />
    <glyph glyph-name="n" unicode="n" horiz-adv-x="530" 
d="M511 69q0 -5 -8 -13q-23 -24 -60 -44q-41 -23 -70 -23q-42 0 -42 54q0 18 6 40l36 150q18 75 18 103q0 41 -37 41q-15 0 -31 -8q-53 -30 -100 -111q-41 -72 -56 -142v1l-20 -93q-5 -25 -41 -25q-45 0 -45 20q0 3 1 7l59 273q5 21 5 29q0 17 -33.5 24t-33.5 18q0 7 15 12
q134 49 151 49q8 0 8 -8q0 -6 -9 -48l-21 -96q85 152 196 152q74 0 74 -85q0 -32 -9 -76l-40 -184q-3 -13 -3 -21q0 -19 17 -19q12 0 35.5 15t29.5 15q8 0 8 -7z" />
    <glyph glyph-name="o" unicode="o" horiz-adv-x="479" 
d="M470 266q0 -108 -78 -193t-186 -85q-75 0 -121 46t-46 121q0 109 78 194t186 85q75 0 121 -46t46 -122zM375 259q0 52 -19 88q-24 46 -72 46q-71 0 -114 -83q-35 -68 -35 -146q0 -52 18 -89q24 -46 72 -46q71 0 114 83q36 69 36 147z" />
    <glyph glyph-name="p" unicode="p" horiz-adv-x="506" 
d="M497 299q0 -121 -83 -214q-86 -97 -205 -97q-33 0 -63 8l-23 -105q-7 -33 -7 -50q0 -31 23 -41q10 -5 42 -8q23 -3 23 -12q0 -17 -16 -17h-249q-10 0 -10 10q0 14 31 19q38 6 52 24q12 15 25 75h1l89 407q5 22 5 29q0 17 -34 24t-34 18q0 7 14.5 12.5t81.5 27t71 21.5
q8 0 8 -8q0 -4 -14 -64q106 74 151 74q59 0 90 -36t31 -97zM402 270q0 99 -80 99q-43 0 -104 -46l-43 -197q-7 -30 -7 -48q0 -52 59 -52q79 0 131 86q44 74 44 158z" />
    <glyph glyph-name="q" unicode="q" horiz-adv-x="489" 
d="M500 453q0 -3 -1 -4l-123 -557q-10 -44 -10 -61q0 -23 17 -31q7 -4 33 -8q18 -2 18 -11q0 -16 -17 -16h-247q-10 0 -10 10q0 15 37 19q46 6 63.5 25t30.5 73l41 181q-113 -84 -160 -84q-60 0 -93 41q-30 38 -30 99q0 114 81 207q85 96 197 96q51 0 82 -28q72 60 80 60
q11 0 11 -11zM383 322q0 34 -21 54t-56 20q-74 0 -122 -83q-42 -70 -42 -150q0 -45 18 -75q21 -36 63 -36q51 0 117 62l40 179q3 16 3 29z" />
    <glyph glyph-name="r" unicode="r" horiz-adv-x="411" 
d="M446 393q0 -13 -15.5 -38t-27.5 -25q-4 0 -17.5 17t-34.5 17h-2h-4q-39 -1 -80 -71q-66 -114 -115 -269q-8 -25 -41 -25h-6h-6q-33 0 -33 20q0 4 1 8l59 272q5 22 5 29q0 17 -33.5 24t-33.5 18q0 7 14 12.5t81.5 27t70.5 21.5q9 0 9 -8q0 -4 -13 -54l-45 -168h8
q30 69 48 104q30 60 57 87q39 40 93 40q19 0 38 -10q23 -12 23 -29z" />
    <glyph glyph-name="s" unicode="s" horiz-adv-x="374" 
d="M371 405q0 -5 -13 -44q-12 -35 -16 -45q-6 -14 -15 -14q-13 0 -13 13q0 4 1 12t1 12q0 58 -58 58q-31 0 -53.5 -18t-22.5 -47q0 -27 37 -58q33 -29 67 -58q37 -38 37 -82q0 -67 -58 -109q-53 -39 -122 -39q-107 0 -107 30q0 19 10 67q1 5 7 26q4 16 16 16q13 0 13 -16
q0 -88 70 -88q36 0 60.5 20.5t24.5 54.5q0 31 -34 63q-33 28 -65 55q-35 37 -35 81q0 66 55 105q49 34 119 34q26 0 54 -6q40 -8 40 -23z" />
    <glyph glyph-name="t" unicode="t" horiz-adv-x="342" 
d="M373 414q0 -2 -2 -5l-10 -26q-8 -15 -19 -15h-122l-49 -221q-6 -26 -6 -45q0 -49 49 -49q18 0 47 10.5t35 10.5q10 0 10 -9q0 -18 -57 -42q-41 -17 -76 -26q-21 -6 -40 -6q-63 0 -63 68q0 31 11 77l55 232h-56q-11 0 -11 11q0 10 16 19q44 23 72 48q33 30 68 82
q8 12 18 12q12 0 12 -12q0 -2 -23 -106h131q10 0 10 -8z" />
    <glyph glyph-name="u" unicode="u" horiz-adv-x="506" 
d="M497 68q0 -5 -8 -13q-25 -25 -60 -44q-40 -23 -70 -23q-41 0 -41 55q0 15 8 49q-81 -105 -170 -105q-80 0 -80 83q0 22 6 52l39 176q5 22 5 29q0 17 -33.5 24t-33.5 19q0 7 15 12l141 46q6 2 10 2q8 0 8 -8v-5l-63 -283q-4 -21 -4 -37q0 -47 39 -47q46 0 87 46
q35 38 51 87q33 105 33 142q0 20 -33.5 27t-33.5 18q0 7 15 12l141 47q6 2 11 2q8 0 8 -9q0 -2 -1 -4l-73 -333q-3 -12 -3 -21q0 -19 17 -19q12 0 35.5 15.5t29.5 15.5q8 0 8 -8z" />
    <glyph glyph-name="v" unicode="v" horiz-adv-x="391" 
d="M398 409q0 -72 -87 -216q-76 -126 -143 -195q-12 -11 -22 -11q-15 0 -17 21.5t-5 64.5q-6 89 -13 144q-15 105 -39 132q-14 15 -41 15h-5.5h-5.5q-12 0 -12 9q0 8 12.5 13.5t62 24.5t56.5 19q12 0 27 -49q39 -125 40 -272q122 143 122 234q0 12 -7.5 35.5t-7.5 36.5
q0 47 43 47q42 0 42 -53z" />
    <glyph glyph-name="w" unicode="w" horiz-adv-x="605" 
d="M612 393q0 -74 -67 -207q-59 -118 -118 -187q-10 -11 -21 -11q-14 0 -20 21q0 1 -20 104l-35 183q-70 -134 -146 -268q-7 -13 -16 -26.5t-22 -13.5q-16 0 -19 22q-2 36 -7 108q-18 199 -49 232q-14 15 -41 15h-5.5h-5.5q-12 0 -12 9q0 8 12.5 14t62 24.5t56.5 18.5
q24 0 45 -129q15 -96 17 -160q45 84 102 186l35 61q5 10 17 29q9 13 19 13q9 0 13 -15.5t22 -102.5q15 -78 41 -214q99 135 99 229q0 20 -12 49.5t-12 44.5q0 41 39 41q48 0 48 -70z" />
    <glyph glyph-name="x" unicode="x" horiz-adv-x="438" 
d="M449 397q0 -42 -65 -51q-35 -4 -74 -55q-19 -26 -41 -56q19 -53 60 -158q13 -30 29 -30q11 0 28 11t22 11q8 0 8 -8q0 -5 -9 -14q-19 -20 -50 -39q-36 -22 -58 -22q-23 0 -42 38q-3 8 -22 59q-9 25 -26 73q-32 -45 -102 -132q-36 -38 -72 -38t-36 34q0 24 21 36
q2 1 51 13q38 10 71 53q19 23 53 72l-28 78q-19 52 -33 73q-10 16 -31 16q-3 0 -9 -1h-9q-13 0 -13 9q0 8 14 15q89 45 103 45q8 0 14 -14q10 -26 51 -141q29 42 92 120q32 36 67 36q36 0 36 -33z" />
    <glyph glyph-name="y" unicode="y" horiz-adv-x="408" 
d="M415 406q0 -30 -11 -62q-36 -106 -121.5 -248t-162.5 -227q-93 -103 -171 -103q-53 0 -53 36q0 19 13.5 47.5t29.5 28.5q9 0 21.5 -21.5t36.5 -21.5q55 0 105 69q44 60 54 120q4 28 4 64q0 61 -14 139q-17 99 -45 123q-18 15 -46 15h-4.5h-5.5q-12 0 -12 10q0 7 13.5 13
t58.5 24q51 19 57 19q7 0 13 -9q31 -43 48 -139q15 -79 15 -151q0 -24 -2 -47q108 163 108 255q0 14 -7 39.5t-7 39.5q0 43 42 43q43 0 43 -56z" />
    <glyph glyph-name="z" unicode="z" horiz-adv-x="354" 
d="M365 409q0 -7 -9 -19q-165 -204 -258 -312q17 6 34 6q24 0 61.5 -19t56.5 -19q30 0 45 26.5t21 26.5q10 0 10 -13q0 -5 -2 -11q-27 -88 -109 -88q-25 0 -64 16t-60 16q-24 0 -55 -15t-33 -15q-14 0 -14 13q0 9 6 16l290 349h-85q-42 0 -60 -9q-24 -10 -44 -45
q-7 -13 -16 -13q-11 0 -11 11q0 7 19 60q17 48 23 63t16 15q11 0 11 -13q0 -14 12 -14h198q17 0 17 -13z" />
    <glyph glyph-name="braceleft" unicode="{" horiz-adv-x="400" 
d="M478 809q0 -9 -16 -14q-50 -15 -73 -45q-19 -25 -31 -80l-40 -182q-13 -56 -30 -85q-24 -38 -69 -54q46 -21 46 -74q0 -25 -9 -66l-40 -182q-7 -32 -7 -53q0 -43 29 -60q11 -5 21 -10q16 -7 16 -14q0 -15 -28 -15h-2q-123 0 -123 108q0 26 7 58l41 185q8 35 8 56
q0 30 -16 42q-8 5 -30 10q-16 3 -16 12q0 13 18 17q15 3 29 6q42 16 61 102l41 185q37 167 197 167q16 0 16 -14z" />
    <glyph glyph-name="bar" unicode="|" horiz-adv-x="305" 
d="M215 -119h-65v815h65v-815z" />
    <glyph glyph-name="braceright" unicode="}" horiz-adv-x="408" 
d="M367 351q0 -13 -18 -17q-14 -3 -29 -6q-42 -16 -61 -102l-41 -185q-36 -167 -196 -167q-17 0 -17 14q0 9 16 14q50 15 73 45q19 25 32 80l40 182q12 57 30 85q23 38 69 55q-47 20 -47 74q0 24 9 65l40 182q7 32 7 54q0 42 -28 59l-22 10q-16 7 -16 14q0 16 28 16h2
q123 0 123 -109q0 -26 -7 -58l-41 -185q-7 -35 -7 -56q0 -30 16 -41q7 -6 29 -10q16 -4 16 -13z" />
    <glyph glyph-name="asciitilde" unicode="~" horiz-adv-x="285" 
d="M325 383q0 -6 -5 -13q-16 -24 -44 -44q-31 -22 -56 -22q-18 0 -49.5 13t-48.5 13q-20 0 -37.5 -15t-23.5 -15q-11 0 -11 12q0 5 5 12q45 66 100 66q17 0 47.5 -13t46.5 -13q20 0 40.5 15t24.5 15q11 0 11 -11z" />
    <glyph glyph-name="uni00A0" unicode="&#xa0;" horiz-adv-x="290" 
 />
    <glyph glyph-name="exclamdown" unicode="&#xa1;" horiz-adv-x="297" 
d="M272 425q0 -29 -21.5 -51t-49.5 -22q-23 0 -38.5 16t-15.5 39q0 29 21 51t50 22q23 0 38.5 -16t15.5 -39zM202 287v-2l-1 -6q-7 -229 -46 -434q-18 -95 -89 -95q-54 0 -54 56q0 38 64 231q56 166 87 242q12 27 25 27q14 0 14 -19z" />
    <glyph glyph-name="cent" unicode="&#xa2;" horiz-adv-x="402" 
d="M423 374q0 -7 -13.5 -34t-20.5 -36t-15 -9t-9 11q-6 41 -13 55q-13 26 -45 32l-75 -338h6q41 -1 85.5 32t47.5 33q11 0 11 -11q0 -8 -10 -20q-67 -84 -154 -98l-20 -92q-6 -25 -28 -25q-17 0 -17 18q0 4 21 98q-62 7 -96 47.5t-34 103.5q0 79 43 150t114 112q27 16 70 25
l19 87q5 26 27 26q17 0 17 -18q0 -5 -19 -91q32 -1 65 -15q43 -18 43 -43zM262 389q-59 -20 -95 -86q-33 -59 -33 -125q0 -80 57 -111z" />
    <glyph glyph-name="sterling" unicode="&#xa3;" horiz-adv-x="539" 
d="M599 662q0 -24 -15 -41.5t-38 -17.5q-24 0 -34.5 33.5t-43.5 33.5q-42 0 -76 -32.5t-53 -92.5q-8 -24 -24 -105q-8 -41 -28 -122h135q18 0 18 -19q0 -12 -9 -22.5t-21 -10.5h-141q-34 -88 -87 -163h12q45 0 89 -25q14 -8 65 -45q33 -25 52 -25q31 0 31 29q0 11 -12 28
t-12 32q0 22 15 38.5t36 16.5q32 0 32 -41q0 -15 -4 -32q-15 -52 -55 -84.5t-92 -32.5q-55 0 -110 44q-58 48 -80 51q-69 -89 -140 -89q-37 0 -37 30q0 41 56 71q42 22 94 31q24 39 39 116q2 17 8 50h-63q-17 0 -17 20q0 12 8.5 22t20.5 10h62q22 103 40 152q29 78 78 134
q43 48 101 79q65 36 122 36q31 0 54.5 -14t23.5 -43z" />
    <glyph glyph-name="currency" unicode="&#xa4;" horiz-adv-x="674" 
d="M729 681q0 -4 -36 -83.5t-42 -90.5q-9 -15 -17 -15q-10 0 -10 9q0 3 1 9q13 39 13 65q0 102 -126 102q-92 0 -166 -79q-62 -67 -95 -166h324q18 0 18 -20q0 -12 -9 -22t-20 -10h-329q-2 -7 -10 -50h304q17 0 17 -19q0 -12 -8.5 -22.5t-20.5 -10.5h-297q-2 -18 -2 -35
q0 -85 37 -136q42 -57 124 -57q106 0 190 74q12 11 35 33q9 9 16 9q11 0 11 -12q0 -8 -6 -16q-50 -71 -123 -113q-78 -46 -160 -46q-116 0 -182 71q-63 68 -63 185q0 21 2 43h-76q-18 0 -18 20q0 12 8.5 22t20.5 10h71q3 15 13 50h-49q-18 0 -18 19q0 12 9 22.5t21 10.5h55
q49 125 148 203q106 83 236 83q88 0 155 -42q11 -7 16 -7q6 0 15 9.5t15 9.5q8 0 8 -7z" />
    <glyph glyph-name="yen" unicode="&#xa5;" horiz-adv-x="628" 
d="M749 685q0 -15 -17 -19q-28 -4 -37 -8q-14 -5 -32 -21q-26 -23 -81 -94l-120 -155h97q21 0 21 -22q0 -13 -10 -24t-24 -11h-127l-3 -4l-10 -47h129q21 0 21 -22q0 -13 -10 -24t-23 -11h-130l-18 -72q-10 -43 -10 -73q0 -29 21 -40q9 -4 38 -7q21 -3 21 -13q0 -18 -18 -18
h-273q-11 0 -11 11q0 16 34 20q43 6 61 27q15 17 30 78q9 44 19 87h-132q-20 0 -20 22q0 13 10 24t23 11h131l11 47l-2 4h-129q-21 0 -21 21q0 14 10 25t24 11h94q-15 37 -65 160q-15 35 -20 46q-12 26 -25 43t-25 22l-31 7q-11 3 -11 12q0 18 18 18h258q11 0 11 -11
q0 -17 -42.5 -21t-42.5 -30q0 -17 22 -72l72 -174q41 54 125 160q55 67 55 90q0 22 -34.5 26t-34.5 14q0 18 18 18h204q11 0 11 -11z" />
    <glyph glyph-name="brokenbar" unicode="&#xa6;" horiz-adv-x="305" 
d="M215 355h-65v341h65v-341zM215 -119h-65v341h65v-341z" />
    <glyph glyph-name="section" unicode="&#xa7;" horiz-adv-x="501" 
d="M484 653q0 -18 -12.5 -34.5t-30.5 -16.5q-21 0 -28.5 20.5t-14.5 39.5q-13 21 -45 21q-38 0 -64.5 -22.5t-26.5 -59.5q0 -35 46 -75l84 -72q45 -46 45 -96q0 -99 -109 -153q37 -39 37 -80q0 -12 -3 -25q-15 -65 -74 -102q-54 -35 -124 -35q-42 0 -73 16q-39 20 -39 57
q0 18 13 33t32 15q20 0 27 -22q13 -39 14 -41q14 -22 50 -22q39 0 68 22.5t29 60.5q0 33 -47 74q-44 37 -87 75q-47 48 -47 97q0 51 32 93q30 39 78 61q-31 36 -31 79q0 70 63 115q56 41 129 41q36 0 69 -14q40 -18 40 -50zM360 310q0 30 -28 62q-11 13 -52 49
q-14 12 -43 37q-52 -27 -52 -90q0 -38 65 -94l56 -48q54 32 54 84z" />
    <glyph glyph-name="dieresis" unicode="&#xa8;" horiz-adv-x="406" 
d="M395 551q0 -21 -15.5 -37t-35.5 -16q-38 0 -38 38q0 21 15.5 37t35.5 16q38 0 38 -38zM273 551q0 -21 -15.5 -37t-35.5 -16q-37 0 -37 38q0 21 15 37t36 16q37 0 37 -38z" />
    <glyph glyph-name="copyright" unicode="&#xa9;" horiz-adv-x="691" 
d="M686 394q0 -141 -106 -252.5t-247 -111.5q-112 0 -185 76.5t-73 189.5q0 141 106 252.5t247 111.5q113 0 185.5 -76.5t72.5 -189.5zM645 389q0 99 -62.5 166.5t-159.5 67.5q-124 0 -215.5 -99t-91.5 -223q0 -99 62 -165q63 -69 161 -69q123 0 214.5 99t91.5 223zM555 534
q0 -7 -7 -47t-9 -45l-5 -10q-5 -2 -9 -4q-10 0 -10 13v2v3q0 81 -87 81q-73 0 -121 -81q-41 -70 -41 -148q0 -107 91 -107q41 0 76 20q22 12 48 36q21 20 27 20q8 0 8 -8q0 -5 -4 -11q-73 -104 -178 -104q-69 0 -108 39.5t-39 108.5q0 103 72.5 184.5t174.5 81.5
q30 0 97 -25q1 0 5.5 5t9.5 5q9 0 9 -9z" />
    <glyph glyph-name="ordfeminine" unicode="&#xaa;" horiz-adv-x="306" 
d="M331 488q0 -12 -32 -29t-47 -17q-27 0 -27 33q-38 -33 -71 -33q-49 0 -49 44q0 64 142 102q13 56 13 66q0 25 -25 25q-14 0 -24 -9t-10 -22q0 -7 4 -14q-48 -25 -51 -25q-12 0 -12 18q0 26 45 55q42 27 70 27q23 0 41.5 -14t18.5 -37q0 -11 -7 -41l-26 -116q-1 -7 -1 -11
q0 -9 8 -9q7 0 18 6.5t15 6.5q7 0 7 -6zM242 565q-78 -24 -78 -62q0 -25 25 -25q21 0 38 18z" />
    <glyph glyph-name="guillemotleft" unicode="&#xab;" horiz-adv-x="336" 
d="M334 387q0 -5 -95 -178l18 -170v-1q0 -17 -15 -17q-6 0 -10 10q-22 53 -68 158q-3 9 -3 15q0 11 11 23t31 34q115 135 122 135q9 0 9 -9zM199 387q0 -5 -96 -178l18 -170v-1q0 -17 -14 -17q-6 0 -11 10q-22 53 -67 158q-4 9 -4 15q0 11 11 23t31 34q115 135 122 135
q10 0 10 -9z" />
    <glyph glyph-name="logicalnot" unicode="&#xac;" horiz-adv-x="545" 
d="M476 0h-76v218h-300v48h376v-266z" />
    <glyph glyph-name="uni00AD" unicode="&#xad;" horiz-adv-x="476" 
d="M431 232q0 -32 -30 -32h-369q-22 0 -22 23q0 12 9 21.5t21 9.5h369q22 0 22 -22z" />
    <glyph glyph-name="registered" unicode="&#xae;" horiz-adv-x="691" 
d="M686 396q0 -141 -106 -252.5t-247 -111.5q-112 0 -185 76.5t-73 189.5q0 141 106 252.5t247 111.5q113 0 185.5 -76.5t72.5 -189.5zM645 391q0 99 -61 165q-64 68 -161 68q-123 0 -215 -98.5t-92 -222.5q0 -99 62 -165q63 -69 161 -69q123 0 216 100q90 98 90 222z
M526 467q0 -44 -27.5 -78t-70.5 -48q21 -64 39 -108q9 -23 14 -29q8 -10 28 -15q9 -3 9 -11q0 -11 -13.5 -13.5t-33.5 -2.5q-4 0 -11 1h-11q-18 0 -25.5 3t-14.5 18q-17 35 -50 147q-13 0 -27 1l-18 -83q-5 -25 -5 -36q0 -20 23 -23t23 -11q0 -15 -14 -15h-145q-9 0 -9 10
q0 12 18 15q23 3 29.5 11t15.5 48l46 209q6 27 6 38q0 16 -20 16q-3 0 -9 -1t-9 -1q-8 0 -8 9q0 14 29 20q45 9 116 9q125 0 125 -80zM456 469q0 49 -59 49q-16 0 -24 -2l-34 -154q11 -1 21 -1q75 0 93 79q3 16 3 29z" />
    <glyph glyph-name="macron" unicode="&#xaf;" horiz-adv-x="331" 
d="M357 534q0 -26 -25 -26h-204q-15 0 -15 17q0 27 25 27h204q15 0 15 -18z" />
    <glyph glyph-name="degree" unicode="&#xb0;" horiz-adv-x="371" 
d="M361 578q0 -68 -50.5 -122t-118.5 -54q-54 0 -88.5 37t-34.5 92q0 68 50.5 121.5t118.5 53.5q54 0 88.5 -37t34.5 -91zM303 572q0 34 -20 58.5t-53 24.5q-43 0 -72.5 -37.5t-29.5 -80.5q0 -34 19.5 -59t52.5 -25q42 0 74 39q29 36 29 80z" />
    <glyph glyph-name="plusminus" unicode="&#xb1;" horiz-adv-x="542" 
d="M497 330q0 -31 -30 -31h-160l-39 -180q-6 -28 -35 -28q-24 0 -24 22q0 8 12 62q9 41 28 124h-156q-22 0 -22 22q0 13 8.5 22.5t21.5 9.5h161l39 179q6 28 35 28q24 0 24 -23q0 -7 -12 -61q-10 -41 -28 -123h155q22 0 22 -23zM431 33q0 -13 -9 -23t-21 -10h-374
q-22 0 -22 24q0 12 9 22t21 10h374q22 0 22 -23z" />
    <glyph glyph-name="uni00B2" unicode="&#xb2;" horiz-adv-x="357" 
d="M368 632q0 -60 -86 -150q-34 -35 -136 -121h90q38 0 62.5 25.5t28.5 25.5q7 0 7 -7q0 -5 -17.5 -42.5t-22.5 -44.5q-9 -14 -21 -14h-203q-14 0 -14 9t9 16q100 83 139 124q85 90 85 155q0 52 -54 52q-35 0 -65.5 -29.5t-32.5 -29.5q-8 0 -8 9q0 4 2 8q18 41 57 68.5
t83 27.5q97 0 97 -82z" />
    <glyph glyph-name="uni00B3" unicode="&#xb3;" horiz-adv-x="293" 
d="M322 650q0 -16 -2 -18q-12 -52 -75 -84q71 -8 71 -76q0 -70 -63.5 -126t-135.5 -56q-28 0 -49 10q-29 12 -29 36q0 14 9.5 24.5t23.5 10.5t28 -25t46 -25q44 0 72 45q26 40 26 87q0 51 -48 51q-16 0 -33 -5q-2 -1 -5 -1q-9 0 -9 9q0 7 27 23q37 22 52 36q27 26 27 59
q0 37 -38 37q-31 0 -59.5 -29.5t-31.5 -29.5q-9 0 -9 9q0 3 2 8q47 89 131 89q72 0 72 -59z" />
    <glyph glyph-name="acute" unicode="&#xb4;" horiz-adv-x="397" 
d="M342 591q0 -21 -29 -43q-11 -8 -69 -42t-64 -34q-10 0 -10 10q0 6 6 13l58 58q15 16 48 46q22 16 37 16q23 0 23 -24z" />
    <glyph glyph-name="mu" unicode="&#xb5;" horiz-adv-x="538" 
d="M529 61q0 -8 -7 -16q-23 -21 -56 -38q-37 -19 -65 -19q-39 0 -39 53q0 10 2 22q-90 -76 -154 -76q-39 0 -57 24q-10 -40 -10 -107v-21v-21q0 -77 -51 -77q-33 0 -33 37q0 7 2 14l102 461q4 21 4 29q0 17 -33 24t-33 16q0 12 15 17q12 5 79.5 26.5t71.5 21.5q8 0 8 -8
q0 -2 -1 -4l-61 -280q-5 -21 -5 -36q0 -52 54 -52q43 0 108 50l43 196q5 21 5 29q0 17 -33 24t-33 16q0 12 13.5 17t81 26.5t70.5 21.5q8 0 8 -8v-4l-57 -257q-17 -79 -17 -92q0 -22 18 -22q12 0 29.5 10.5t21.5 10.5q9 0 9 -8z" />
    <glyph glyph-name="paragraph" unicode="&#xb6;" horiz-adv-x="495" 
d="M486 673q0 -22 -43 -208l-52 -226q-16 -80 -52 -237q-11 -42 -42 -42q-28 0 -28 29q0 6 1 13l139 626h-85l-138 -626q-9 -42 -41 -42q-29 0 -29 29q0 6 2 13l86 391q-40 4 -65 41q-22 33 -22 75q0 67 48.5 126.5t112.5 59.5h187q21 0 21 -22z" />
    <glyph glyph-name="periodcentered" unicode="&#xb7;" horiz-adv-x="352" 
d="M245 263q0 -29 -22 -51.5t-51 -22.5q-23 0 -38 15.5t-15 38.5q0 29 22 51.5t51 22.5q23 0 38 -15.5t15 -38.5z" />
    <glyph glyph-name="cedilla" unicode="&#xb8;" horiz-adv-x="371" 
d="M234 -69q0 -27 -19.5 -45t-46.5 -18q-15 0 -30 9q-18 10 -18 23q0 9 7 9q2 0 12.5 -8t24.5 -8q28 0 28 28q0 18 -17 18q-4 0 -10.5 -3t-9.5 -3q-6 0 -6 7q0 4 33 60h29l-20 -34h7q36 0 36 -35z" />
    <glyph glyph-name="uni00B9" unicode="&#xb9;" horiz-adv-x="263" 
d="M266 701v-4l-69 -309q-5 -23 -5 -34q0 -24 26.5 -26t26.5 -10q0 -14 -15 -14h-167q-10 0 -10 9q0 13 23 15q29 2 38.5 13.5t17.5 46.5l55 249q1 3 1 5q0 7 -10 7h-40q-12 0 -12 10t16 13q37 7 51 11q26 7 49 22q8 6 14 6q10 0 10 -10z" />
    <glyph glyph-name="ordmasculine" unicode="&#xba;" horiz-adv-x="324" 
d="M369 608q0 -66 -48 -116t-113 -50q-46 0 -74.5 27.5t-28.5 72.5q0 66 47.5 116.5t113.5 50.5q46 0 74.5 -27.5t28.5 -73.5zM306 604q0 76 -51 76q-42 0 -67 -48q-21 -39 -21 -84q0 -77 52 -77q41 0 66 48q21 39 21 85z" />
    <glyph glyph-name="guillemotright" unicode="&#xbb;" horiz-adv-x="364" 
d="M337 213q0 -10 -11 -22.5t-31 -34.5q-115 -135 -122 -135q-9 0 -9 9q0 5 95 179l-18 169v2q0 16 15 16q5 0 10 -10q21 -53 67 -158q4 -8 4 -15zM202 213q0 -10 -11.5 -22.5t-31.5 -34.5q-114 -135 -122 -135q-9 0 -9 9q0 5 96 179l-19 169v2q0 16 15 16q6 0 11 -10
q21 -53 67 -158q4 -8 4 -15z" />
    <glyph glyph-name="onequarter" unicode="&#xbc;" horiz-adv-x="636" 
d="M637 158q0 -5 -12 -24q-9 -15 -24 -15h-40q-13 -59 -13 -70q0 -23 25 -25t25 -11q0 -13 -15 -13h-161q-10 0 -10 10q0 11 23 13q27 4 36.5 15t24.5 81h-131q-12 0 -12 10q0 7 7 15l215 249q14 16 29 16q17 0 17 -15v-5l-49 -222h54q11 0 11 -9zM646 714q0 -13 -14 -30
l-550 -692q-17 -21 -30 -21q-19 0 -19 16q0 12 15 30l549 692q17 21 31 21q18 0 18 -16zM245 701v-4l-69 -309q-5 -23 -5 -34q0 -24 26.5 -26t26.5 -10q0 -14 -15 -14h-167q-10 0 -10 9q0 13 23 15q29 2 38.5 13.5t17.5 46.5l55 249q1 3 1 5q0 7 -10 7h-40q-12 0 -12 10
t16 13q37 7 51 11q26 7 49 22q8 6 14 6q10 0 10 -10zM538 309l-122 -142h91z" />
    <glyph glyph-name="onehalf" unicode="&#xbd;" horiz-adv-x="701" 
d="M685 327q0 -60 -86 -149q-35 -37 -137 -122h15h54h22q38 0 62.5 26t28.5 26q7 0 7 -8q0 -4 -17.5 -41t-22.5 -45q-9 -14 -22 -14h-202q-14 0 -14 9t9 16q100 83 139 124q84 89 84 155q0 52 -54 52q-34 0 -64.5 -29.5t-32.5 -29.5q-9 0 -9 9q0 3 2 8q19 41 58 68.5
t82 27.5q98 0 98 -83zM659 714q0 -13 -14 -30l-550 -692q-17 -21 -30 -21q-19 0 -19 16q0 12 15 30l549 692q17 21 31 21q18 0 18 -16zM258 701v-4l-69 -309q-5 -23 -5 -34q0 -24 26.5 -26t26.5 -10q0 -14 -15 -14h-167q-10 0 -10 9q0 13 23 15q29 2 38.5 13.5t17.5 46.5
l55 249q1 3 1 5q0 7 -10 7h-40q-12 0 -12 10t16 13q37 7 51 11q26 7 49 22q8 6 14 6q10 0 10 -10z" />
    <glyph glyph-name="threequarters" unicode="&#xbe;" horiz-adv-x="696" 
d="M706 714q0 -13 -14 -30l-549 -692q-17 -21 -30 -21q-19 0 -19 16q0 12 14 30l550 692q17 21 31 21q17 0 17 -16zM687 158q0 -5 -12 -24q-9 -15 -23 -15h-40q-13 -59 -13 -70q0 -23 24.5 -25t24.5 -11q0 -13 -14 -13h-152q-9 0 -9 10q0 11 16 12q22 2 32.5 15t25.5 82
h-131q-12 0 -12 10q0 7 6 15l215 249q14 16 30 16q17 0 17 -15q0 -3 -1 -5l-49 -222h55q10 0 10 -9zM322 650q0 -16 -2 -18q-12 -52 -75 -84q71 -8 71 -76q0 -70 -63.5 -126t-135.5 -56q-28 0 -49 10q-29 12 -29 36q0 14 9.5 24.5t23.5 10.5t28 -25t46 -25q44 0 72 45
q26 40 26 87q0 51 -48 51q-16 0 -33 -5q-2 -1 -5 -1q-9 0 -9 9q0 7 27 23q37 22 52 36q27 26 27 59q0 37 -38 37q-31 0 -59.5 -29.5t-31.5 -29.5q-9 0 -9 9q0 3 2 8q47 89 131 89q72 0 72 -59zM589 309l-123 -142h91z" />
    <glyph glyph-name="questiondown" unicode="&#xbf;" horiz-adv-x="364" 
d="M333 425q0 -28 -21.5 -50.5t-49.5 -22.5q-23 0 -38.5 16t-15.5 40q0 28 21 50.5t50 22.5q23 0 38.5 -16t15.5 -40zM283 221q0 -72 -63 -132l-118 -98q-63 -59 -63 -126q0 -60 54 -60q29 0 66 37t64 37q43 0 43 -43t-43 -67q-36 -19 -83 -19q-70 0 -118.5 44.5
t-48.5 113.5q0 77 58 143q27 32 119 105q37 29 53 52q20 28 25 68q5 30 20 30q19 0 29 -35q6 -24 6 -50z" />
    <glyph glyph-name="Agrave" unicode="&#xc0;" horiz-adv-x="661" 
d="M616 18q0 -18 -18 -18h-269q-13 0 -13 12q0 16 29 19q44 3 53 7q29 11 29 50q0 9 -5 53l-10 101h-198l-67 -123q-24 -44 -24 -61q0 -19 30 -25q22 -2 45 -4q11 -2 11 -11q0 -18 -20 -18h-211q-13 0 -13 12q0 14 17 17q29 5 36 8q15 5 31.5 20t62.5 96l305 540
q10 18 25 18q17 0 19 -18l70 -540q3 -24 6 -49q5 -29 14 -46q12 -22 41 -27q24 -4 24 -13zM408 285l-26 261l-144 -261h170zM460 741q0 -12 -13 -12q-5 0 -49.5 33.5t-52.5 42.5q-14 16 -14 31q0 32 31 32q16 0 31 -16q8 -10 37 -56q30 -49 30 -55z" />
    <glyph glyph-name="Aacute" unicode="&#xc1;" horiz-adv-x="661" 
d="M616 18q0 -18 -18 -18h-269q-13 0 -13 12q0 16 29 19q44 3 53 7q29 11 29 50q0 9 -5 53l-10 101h-198l-67 -123q-24 -44 -24 -61q0 -19 30 -25q22 -2 45 -4q11 -2 11 -11q0 -18 -20 -18h-211q-13 0 -13 12q0 14 17 17q29 5 36 8q15 5 31.5 20t62.5 96l305 540
q10 18 25 18q17 0 19 -18l70 -540q3 -24 6 -49q5 -29 14 -46q12 -22 41 -27q24 -4 24 -13zM408 285l-26 261l-144 -261h170zM613 852q0 -20 -29 -42q-11 -9 -69 -43t-64 -34q-10 0 -10 11q0 5 6 12q3 5 57 58q16 16 49 46q21 16 37 16q23 0 23 -24z" />
    <glyph glyph-name="Acircumflex" unicode="&#xc2;" horiz-adv-x="661" 
d="M616 18q0 -18 -18 -18h-269q-13 0 -13 12q0 16 29 19q44 3 53 7q29 11 29 50q0 9 -5 53l-10 101h-198l-67 -123q-24 -44 -24 -61q0 -19 30 -25q22 -2 45 -4q11 -2 11 -11q0 -18 -20 -18h-211q-13 0 -13 12q0 14 17 17q29 5 36 8q15 5 31.5 20t62.5 96l305 540
q10 18 25 18q17 0 19 -18l70 -540q3 -24 6 -49q5 -29 14 -46q12 -22 41 -27q24 -4 24 -13zM408 285l-26 261l-144 -261h170zM547 755q0 -12 -13 -12h-26q-11 0 -16 11l-26 58l-53 -58q-10 -12 -34 -12q-14 0 -14 8q0 6 7 12l93 96q10 10 17 10q8 0 13 -10q0 -2 29 -54
q23 -44 23 -49z" />
    <glyph glyph-name="Atilde" unicode="&#xc3;" horiz-adv-x="661" 
d="M616 18q0 -18 -18 -18h-269q-13 0 -13 12q0 16 29 19q44 3 53 7q29 11 29 50q0 9 -5 53l-10 101h-198l-67 -123q-24 -44 -24 -61q0 -19 30 -25q22 -2 45 -4q11 -2 11 -11q0 -18 -20 -18h-211q-13 0 -13 12q0 14 17 17q29 5 36 8q15 5 31.5 20t62.5 96l305 540
q10 18 25 18q17 0 19 -18l70 -540q3 -24 6 -49q5 -29 14 -46q12 -22 41 -27q24 -4 24 -13zM408 285l-26 261l-144 -261h170zM614 823q0 -6 -4 -13q-17 -24 -44 -44q-32 -22 -57 -22q-17 0 -48.5 13t-49.5 13q-19 0 -37 -15t-23 -15q-12 0 -12 12q0 5 5 12q45 66 101 66
q17 0 47 -13t46 -13q20 0 40.5 15t24.5 15q11 0 11 -11z" />
    <glyph glyph-name="Adieresis" unicode="&#xc4;" horiz-adv-x="661" 
d="M616 18q0 -18 -18 -18h-269q-13 0 -13 12q0 16 29 19q44 3 53 7q29 11 29 50q0 9 -5 53l-10 101h-198l-67 -123q-24 -44 -24 -61q0 -19 30 -25q22 -2 45 -4q11 -2 11 -11q0 -18 -20 -18h-211q-13 0 -13 12q0 14 17 17q29 5 36 8q15 5 31.5 20t62.5 96l305 540
q10 18 25 18q17 0 19 -18l70 -540q3 -24 6 -49q5 -29 14 -46q12 -22 41 -27q24 -4 24 -13zM408 285l-26 261l-144 -261h170zM569 803q0 -22 -16 -39t-38 -17q-17 0 -28 11.5t-11 28.5q0 22 16 39t38 17q17 0 28 -11.5t11 -28.5zM441 803q0 -22 -16 -39t-38 -17
q-17 0 -28 11.5t-11 28.5q0 22 16 39t38 17q17 0 28 -11.5t11 -28.5z" />
    <glyph glyph-name="Aring" unicode="&#xc5;" horiz-adv-x="661" 
d="M616 18q0 -18 -18 -18h-269q-13 0 -13 12q0 16 29 19q44 3 53 7q29 11 29 50q0 9 -5 53l-10 101h-198l-67 -123q-24 -44 -24 -61q0 -19 30 -25q22 -2 45 -4q11 -2 11 -11q0 -18 -20 -18h-211q-13 0 -13 12q0 14 17 17q29 5 36 8q15 5 31.5 20t62.5 96l305 540
q10 18 25 18q17 0 19 -18l70 -540q3 -24 6 -49q5 -29 14 -46q12 -22 41 -27q24 -4 24 -13zM408 285l-26 261l-144 -261h170zM532 817q0 -30 -24 -53.5t-54 -23.5q-26 0 -43 16.5t-17 41.5q0 31 24 54.5t55 23.5q25 0 42 -17t17 -42zM492 812q0 26 -25 26q-13 0 -23 -10.5
t-10 -24.5q0 -25 25 -25q13 0 23 10.5t10 23.5z" />
    <glyph glyph-name="AE" unicode="&#xc6;" horiz-adv-x="878" 
d="M914 679q0 -3 -1 -7l-22 -132q-3 -19 -19 -19q-13 0 -15 33q-3 47 -10 63q-14 35 -54 39q-18 1 -52 1q-36 0 -56 -1q-23 -2 -31.5 -8t-13.5 -28l-50 -230h80q60 0 78 8q25 12 39 51q13 34 25 34t12 -12q0 -9 -21 -103t-26 -110.5t-18 -16.5q-12 0 -12 13q0 7 2 20.5
t2 20.5q0 54 -90 54h-80q-4 -17 -60 -272q-3 -13 -3 -18q0 -16 30 -17.5t81 -1.5h10q27 0 43 2q47 3 80 45l52 80q8 11 17 11q12 0 12 -12q0 -21 -49 -143q-10 -23 -31 -23h-448q-12 0 -12 13q0 15 35 20q44 6 60.5 25t35.5 101q12 55 23 111h-179q-148 -189 -148 -217
q0 -17 38.5 -20t38.5 -16q0 -17 -19 -17h-211q-12 0 -12 12q0 15 19 19q26 5 37.5 9t30.5 18q25 19 85 97l241 316q19 26 59 77q55 67 55 91q0 22 -30 24.5t-30 14.5q0 18 19 18h443q20 0 20 -17zM531 604l-220 -290h156z" />
    <glyph glyph-name="Ccedilla" unicode="&#xc7;" horiz-adv-x="637" 
d="M702 679v-6l-20 -113q-2 -16 -8 -48q-5 -16 -17 -16t-12 16v5q1 4 1 5q0 76 -43.5 115.5t-120.5 39.5t-146 -56q-58 -47 -99 -124q-60 -116 -60 -247q0 -90 40 -142q45 -59 132 -59q119 0 218 91l40 40q9 8 16 8q10 0 10 -10q0 -6 -6 -14q-129 -177 -301 -185l-15 -25h7
q36 0 36 -35q0 -27 -19.5 -45t-46.5 -18q-15 0 -30 9q-18 10 -18 23q0 9 7 9q2 0 12.5 -8t24.5 -8q28 0 28 28q0 18 -17 18q-4 0 -10.5 -3t-9.5 -3q-6 0 -6 7t28 51q-118 4 -183 75t-65 189q0 184 127 327q131 147 313 147q79 0 157 -40q13 -7 19 -7t13 9.5t14 9.5
q10 0 10 -10z" />
    <glyph glyph-name="Egrave" unicode="&#xc8;" horiz-adv-x="574" 
d="M610 678v-5l-22 -132q-3 -18 -16 -18q-12 0 -14 12l-10 78q-12 41 -57 45q-15 1 -41 1h-10q-33 0 -51 -1q-24 -1 -32 -7t-13 -29l-52 -233h78q57 0 76 8q24 12 39 51q13 34 24 34t11 -11q0 -7 -23 -108q-7 -36 -24 -106q-4 -15 -16 -15t-12 12q0 7 2 20.5t2 20.5
q0 55 -90 55h-75l-60 -274q-3 -13 -3 -19q0 -16 32.5 -17t73.5 -1h12q25 0 40 1q47 4 81 45q5 6 52 81q8 11 17 11q10 0 10 -11q0 -4 -21.5 -70.5t-24.5 -74.5q-10 -21 -29 -21h-448q-11 0 -11 11q0 15 35 20q44 6 60.5 25t33.5 95l87 394q11 52 11 73q0 30 -21 40
q-8 4 -38 8q-21 2 -21 13q0 17 18 17h422q18 0 18 -18zM447 741q0 -12 -13 -12q-6 0 -50 33.5t-52 42.5q-14 16 -14 31q0 32 31 32q16 0 31 -16q8 -10 37 -56q30 -49 30 -55z" />
    <glyph glyph-name="Eacute" unicode="&#xc9;" horiz-adv-x="574" 
d="M610 678v-5l-22 -132q-3 -18 -16 -18q-12 0 -14 12l-10 78q-12 41 -57 45q-15 1 -41 1h-10q-33 0 -51 -1q-24 -1 -32 -7t-13 -29l-52 -233h78q57 0 76 8q24 12 39 51q13 34 24 34t11 -11q0 -7 -23 -108q-7 -36 -24 -106q-4 -15 -16 -15t-12 12q0 7 2 20.5t2 20.5
q0 55 -90 55h-75l-60 -274q-3 -13 -3 -19q0 -16 32.5 -17t73.5 -1h12q25 0 40 1q47 4 81 45q5 6 52 81q8 11 17 11q10 0 10 -11q0 -4 -21.5 -70.5t-24.5 -74.5q-10 -21 -29 -21h-448q-11 0 -11 11q0 15 35 20q44 6 60.5 25t33.5 95l87 394q11 52 11 73q0 30 -21 40
q-8 4 -38 8q-21 2 -21 13q0 17 18 17h422q18 0 18 -18zM544 852q0 -20 -29 -42q-11 -9 -69 -43t-64 -34q-10 0 -10 11q0 5 5 11t59 59q15 16 48 46q22 16 37 16q23 0 23 -24z" />
    <glyph glyph-name="Ecircumflex" unicode="&#xca;" horiz-adv-x="574" 
d="M610 678v-5l-22 -132q-3 -18 -16 -18q-12 0 -14 12l-10 78q-12 41 -57 45q-15 1 -41 1h-10q-33 0 -51 -1q-24 -1 -32 -7t-13 -29l-52 -233h78q57 0 76 8q24 12 39 51q13 34 24 34t11 -11q0 -7 -23 -108q-7 -36 -24 -106q-4 -15 -16 -15t-12 12q0 7 2 20.5t2 20.5
q0 55 -90 55h-75l-60 -274q-3 -13 -3 -19q0 -16 32.5 -17t73.5 -1h12q25 0 40 1q47 4 81 45q5 6 52 81q8 11 17 11q10 0 10 -11q0 -4 -21.5 -70.5t-24.5 -74.5q-10 -21 -29 -21h-448q-11 0 -11 11q0 15 35 20q44 6 60.5 25t33.5 95l87 394q11 52 11 73q0 30 -21 40
q-8 4 -38 8q-21 2 -21 13q0 17 18 17h422q18 0 18 -18zM507 755q0 -12 -13 -12h-26q-11 0 -16 11l-26 58l-53 -58q-10 -12 -34 -12q-14 0 -14 8q0 6 7 12l93 96q10 10 17 10q8 0 13 -10q0 -2 29 -54q23 -44 23 -49z" />
    <glyph glyph-name="Edieresis" unicode="&#xcb;" horiz-adv-x="574" 
d="M610 678v-5l-22 -132q-3 -18 -16 -18q-12 0 -14 12l-10 78q-12 41 -57 45q-15 1 -41 1h-10q-33 0 -51 -1q-24 -1 -32 -7t-13 -29l-52 -233h78q57 0 76 8q24 12 39 51q13 34 24 34t11 -11q0 -7 -23 -108q-7 -36 -24 -106q-4 -15 -16 -15t-12 12q0 7 2 20.5t2 20.5
q0 55 -90 55h-75l-60 -274q-3 -13 -3 -19q0 -16 32.5 -17t73.5 -1h12q25 0 40 1q47 4 81 45q5 6 52 81q8 11 17 11q10 0 10 -11q0 -4 -21.5 -70.5t-24.5 -74.5q-10 -21 -29 -21h-448q-11 0 -11 11q0 15 35 20q44 6 60.5 25t33.5 95l87 394q11 52 11 73q0 30 -21 40
q-8 4 -38 8q-21 2 -21 13q0 17 18 17h422q18 0 18 -18zM539 803q0 -22 -16 -39t-38 -17q-17 0 -28 11.5t-11 28.5q0 22 16 39t38 17q17 0 28 -11.5t11 -28.5zM411 803q0 -22 -16 -39t-38 -17q-17 0 -28 11.5t-11 28.5q0 22 16 39t38 17q17 0 28 -11.5t11 -28.5z" />
    <glyph glyph-name="Igrave" unicode="&#xcc;" horiz-adv-x="399" 
d="M466 684q0 -15 -35 -19q-43 -6 -60 -26t-34 -94l-87 -394q-11 -52 -11 -73q0 -30 20 -40q9 -4 39 -8q21 -2 21 -13q0 -17 -18 -17h-274q-12 0 -12 12q0 14 36 19q43 6 59.5 25.5t33.5 94.5l87 394q11 52 11 73q0 30 -21 40q-8 4 -38 7q-21 3 -21 14q0 17 18 17h274
q12 0 12 -12zM350 741q0 -12 -12 -12q-6 0 -50.5 33.5t-52.5 42.5q-14 16 -14 31q0 32 32 32q15 0 30 -16q9 -10 37 -56q30 -49 30 -55z" />
    <glyph glyph-name="Iacute" unicode="&#xcd;" horiz-adv-x="399" 
d="M466 684q0 -15 -35 -19q-43 -6 -60 -26t-34 -94l-87 -394q-11 -52 -11 -73q0 -30 20 -40q9 -4 39 -8q21 -2 21 -13q0 -17 -18 -17h-274q-12 0 -12 12q0 14 36 19q43 6 59.5 25.5t33.5 94.5l87 394q11 52 11 73q0 30 -21 40q-8 4 -38 7q-21 3 -21 14q0 17 18 17h274
q12 0 12 -12zM482 852q0 -20 -28 -42q-11 -9 -68 -42q-60 -35 -65 -35q-10 0 -10 11q0 5 4.5 11t58.5 59q16 16 49 46q21 16 37 16q22 0 22 -24z" />
    <glyph glyph-name="Icircumflex" unicode="&#xce;" horiz-adv-x="399" 
d="M466 684q0 -15 -35 -19q-43 -6 -60 -26t-34 -94l-87 -394q-11 -52 -11 -73q0 -30 20 -40q9 -4 39 -8q21 -2 21 -13q0 -17 -18 -17h-274q-12 0 -12 12q0 14 36 19q43 6 59.5 25.5t33.5 94.5l87 394q11 52 11 73q0 30 -21 40q-8 4 -38 7q-21 3 -21 14q0 17 18 17h274
q12 0 12 -12zM426 755q0 -12 -13 -12h-26q-11 0 -16 11l-26 58l-52 -58q-11 -12 -34 -12q-14 0 -14 8q0 6 6 12l94 96q9 10 16 10q9 0 13 -10q1 -2 29 -54q23 -44 23 -49z" />
    <glyph glyph-name="Idieresis" unicode="&#xcf;" horiz-adv-x="399" 
d="M466 684q0 -15 -35 -19q-43 -6 -60 -26t-34 -94l-87 -394q-11 -52 -11 -73q0 -30 20 -40q9 -4 39 -8q21 -2 21 -13q0 -17 -18 -17h-274q-12 0 -12 12q0 14 36 19q43 6 59.5 25.5t33.5 94.5l87 394q11 52 11 73q0 30 -21 40q-8 4 -38 7q-21 3 -21 14q0 17 18 17h274
q12 0 12 -12zM449 803q0 -22 -16 -39t-38 -17q-17 0 -28 11.5t-11 28.5q0 22 16 39t38 17q17 0 28 -11.5t11 -28.5zM321 803q0 -22 -16 -39t-38 -17q-17 0 -28 11.5t-11 28.5q0 22 16 39t38 17q17 0 28 -11.5t11 -28.5z" />
    <glyph glyph-name="Eth" unicode="&#xd0;" horiz-adv-x="739" 
d="M770 459q0 -41 -9 -79q-43 -186 -162 -283t-308 -97h-260q-11 0 -11 11q0 16 32 20q40 4 57 27q12 15 29 93l38 169h-102q-21 0 -21 21q0 14 10 25t23 11h102l37 169q12 53 12 73q0 37 -41 37q-6 0 -17.5 -1.5t-17.5 -1.5q-11 0 -11 11q0 13 18 20q28 10 122 18
q80 6 128 6q196 0 277 -68q75 -64 75 -181zM646 471q0 99 -56 149t-156 50q-41 0 -76 -6l-64 -287h108q20 0 20 -22q0 -14 -10 -24.5t-23 -10.5h-107l-44 -198q-4 -21 -4 -35q0 -32 25 -42q16 -6 53 -6h1q244 0 321 332q12 52 12 100z" />
    <glyph glyph-name="Ntilde" unicode="&#xd1;" horiz-adv-x="757" 
d="M858 684q0 -15 -35 -19q-43 -6 -59.5 -25.5t-33.5 -94.5l-116 -525q-6 -31 -31 -31q-18 0 -27 18l-277 554l-90 -411q-12 -52 -12 -73q0 -29 22 -39q8 -4 40 -8q22 -2 22 -13q0 -17 -18 -17h-222q-12 0 -12 12q0 14 35 19q44 6 60.5 25.5t32.5 93.5l87 394q10 45 10 69
q0 33 -22 44q-9 5 -40 8q-21 2 -21 14q0 17 18 17l153 -1q23 0 35 -23l242 -490l80 363q11 52 11 73q0 30 -21 40q-8 4 -38 7q-21 3 -21 14q0 17 18 17h219q11 0 11 -12zM657 823q0 -6 -4 -13q-17 -24 -44 -44q-31 -22 -57 -22q-17 0 -48.5 13t-48.5 13q-20 0 -38 -15
t-23 -15q-11 0 -11 12q0 5 4 12q45 66 101 66q17 0 47 -13t46 -13q20 0 40.5 15t24.5 15q11 0 11 -11z" />
    <glyph glyph-name="Ograve" unicode="&#xd2;" horiz-adv-x="724" 
d="M765 438q0 -179 -132 -318q-135 -142 -312 -142q-127 0 -204.5 76.5t-77.5 203.5q0 178 133.5 318.5t311.5 140.5q126 0 203.5 -76.5t77.5 -202.5zM633 449q0 93 -36 152q-43 73 -130 73h-2q-50 0 -100 -26q-93 -49 -146 -175q-47 -109 -47 -227q0 -93 36 -153
q44 -73 130 -73h2q50 0 101 27q92 49 146 174q46 110 46 228zM504 741q0 -12 -13 -12q-6 0 -50 33.5t-52 42.5q-14 16 -14 31q0 32 31 32q16 0 31 -16q8 -10 37 -56q30 -49 30 -55z" />
    <glyph glyph-name="Oacute" unicode="&#xd3;" horiz-adv-x="724" 
d="M765 438q0 -179 -132 -318q-135 -142 -312 -142q-127 0 -204.5 76.5t-77.5 203.5q0 178 133.5 318.5t311.5 140.5q126 0 203.5 -76.5t77.5 -202.5zM633 449q0 93 -36 152q-43 73 -130 73h-2q-50 0 -100 -26q-93 -49 -146 -175q-47 -109 -47 -227q0 -93 36 -153
q44 -73 130 -73h2q50 0 101 27q92 49 146 174q46 110 46 228zM659 852q0 -20 -29 -42q-11 -9 -69 -43t-63 -34q-11 0 -11 11q0 5 5 11t59 59q15 16 48 46q22 16 37 16q23 0 23 -24z" />
    <glyph glyph-name="Ocircumflex" unicode="&#xd4;" horiz-adv-x="724" 
d="M765 438q0 -179 -132 -318q-135 -142 -312 -142q-127 0 -204.5 76.5t-77.5 203.5q0 178 133.5 318.5t311.5 140.5q126 0 203.5 -76.5t77.5 -202.5zM633 449q0 93 -36 152q-43 73 -130 73h-2q-50 0 -100 -26q-93 -49 -146 -175q-47 -109 -47 -227q0 -93 36 -153
q44 -73 130 -73h2q50 0 101 27q92 49 146 174q46 110 46 228zM595 755q0 -12 -13 -12h-25q-12 0 -17 11l-25 58l-53 -58q-11 -12 -34 -12q-14 0 -14 8q0 6 6 12l94 96q9 10 17 10t12 -10q1 -2 29 -54q23 -44 23 -49z" />
    <glyph glyph-name="Otilde" unicode="&#xd5;" horiz-adv-x="724" 
d="M765 438q0 -179 -132 -318q-135 -142 -312 -142q-127 0 -204.5 76.5t-77.5 203.5q0 178 133.5 318.5t311.5 140.5q126 0 203.5 -76.5t77.5 -202.5zM633 449q0 93 -36 152q-43 73 -130 73h-2q-50 0 -100 -26q-93 -49 -146 -175q-47 -109 -47 -227q0 -93 36 -153
q44 -73 130 -73h2q50 0 101 27q92 49 146 174q46 110 46 228zM672 823q0 -6 -4 -13q-17 -24 -44 -44q-31 -22 -57 -22q-17 0 -48.5 13t-48.5 13q-20 0 -38 -15t-23 -15q-11 0 -11 12q0 5 4 12q45 66 101 66q17 0 47 -13t46 -13q20 0 40.5 15t24.5 15q11 0 11 -11z" />
    <glyph glyph-name="Odieresis" unicode="&#xd6;" horiz-adv-x="724" 
d="M765 438q0 -179 -132 -318q-135 -142 -312 -142q-127 0 -204.5 76.5t-77.5 203.5q0 178 133.5 318.5t311.5 140.5q126 0 203.5 -76.5t77.5 -202.5zM633 449q0 93 -36 152q-43 73 -130 73h-2q-50 0 -100 -26q-93 -49 -146 -175q-47 -109 -47 -227q0 -93 36 -153
q44 -73 130 -73h2q50 0 101 27q92 49 146 174q46 110 46 228zM609 803q0 -22 -16 -39t-38 -17q-17 0 -28 11.5t-11 28.5q0 22 16 39t38 17q17 0 28 -11.5t11 -28.5zM481 803q0 -22 -16 -39t-38 -17q-17 0 -28 11.5t-11 28.5q0 22 16 39t38 17q17 0 28 -11.5t11 -28.5z" />
    <glyph glyph-name="multiply" unicode="&#xd7;" horiz-adv-x="505" 
d="M467 414q0 -11 -8 -17l-192 -174l111 -166q4 -6 4 -14q0 -11 -9 -19.5t-21 -8.5q-13 0 -21 11l-106 159l-186 -168q-6 -6 -15 -6q-26 0 -26 27q0 10 7 17l192 173l-111 165q-4 6 -4 14q0 11 9 19.5t21 8.5q14 0 21 -11l106 -158l186 168q7 6 15 6q27 0 27 -26z" />
    <glyph glyph-name="Oslash" unicode="&#xd8;" horiz-adv-x="724" 
d="M765 436q0 -178 -134 -317.5t-311 -139.5q-86 0 -153 39l-47 -59q-12 -14 -24 -14q-22 0 -22 21q0 12 55 79q-90 79 -90 215q0 178 134 317.5t310 139.5q85 0 150 -37l50 62q11 14 24 14q22 0 22 -21q0 -12 -57 -82q93 -79 93 -217zM585 619q-44 56 -118 56h-2
q-49 0 -98 -26q-94 -48 -148 -174q-47 -110 -47 -229q0 -69 20 -121zM633 449q0 74 -23 127l-394 -496q44 -60 122 -60h2q49 0 98 26q93 48 148 174q47 110 47 229z" />
    <glyph glyph-name="Ugrave" unicode="&#xd9;" horiz-adv-x="702" 
d="M823 681q0 -11 -36 -16q-42 -6 -59 -25t-33 -95l-60 -271q-29 -129 -106 -206q-85 -85 -210 -85q-210 0 -210 190q0 45 12 101l60 271q12 53 12 74q0 29 -21 39q-8 4 -39 7q-21 3 -21 14q0 17 18 17h275q11 0 11 -12q0 -15 -35 -19q-43 -6 -60 -25t-34 -95l-56 -258
q-14 -64 -14 -110q0 -133 129 -133q184 0 238 243l57 258q11 53 11 74q0 29 -21 39q-7 4 -38 7q-21 3 -21 14q0 17 18 17h222q11 0 11 -15zM506 741q0 -12 -13 -12q-5 0 -49.5 33.5t-52.5 42.5q-14 16 -14 31q0 32 32 32q15 0 30 -16q9 -10 37 -56q30 -49 30 -55z" />
    <glyph glyph-name="Uacute" unicode="&#xda;" horiz-adv-x="702" 
d="M823 681q0 -11 -36 -16q-42 -6 -59 -25t-33 -95l-60 -271q-29 -129 -106 -206q-85 -85 -210 -85q-210 0 -210 190q0 45 12 101l60 271q12 53 12 74q0 29 -21 39q-8 4 -39 7q-21 3 -21 14q0 17 18 17h275q11 0 11 -12q0 -15 -35 -19q-43 -6 -60 -25t-34 -95l-56 -258
q-14 -64 -14 -110q0 -133 129 -133q184 0 238 243l57 258q11 53 11 74q0 29 -21 39q-7 4 -38 7q-21 3 -21 14q0 17 18 17h222q11 0 11 -15zM656 852q0 -20 -28 -42q-11 -9 -68 -42q-60 -35 -65 -35q-11 0 -11 11q0 5 5 11t59 59q16 16 49 46q21 16 37 16q22 0 22 -24z" />
    <glyph glyph-name="Ucircumflex" unicode="&#xdb;" horiz-adv-x="702" 
d="M823 681q0 -11 -36 -16q-42 -6 -59 -25t-33 -95l-60 -271q-29 -129 -106 -206q-85 -85 -210 -85q-210 0 -210 190q0 45 12 101l60 271q12 53 12 74q0 29 -21 39q-8 4 -39 7q-21 3 -21 14q0 17 18 17h275q11 0 11 -12q0 -15 -35 -19q-43 -6 -60 -25t-34 -95l-56 -258
q-14 -64 -14 -110q0 -133 129 -133q184 0 238 243l57 258q11 53 11 74q0 29 -21 39q-7 4 -38 7q-21 3 -21 14q0 17 18 17h222q11 0 11 -15zM579 755q0 -12 -13 -12h-26q-11 0 -16 11l-26 58l-53 -58q-10 -12 -34 -12q-14 0 -14 8q0 6 7 12l93 96q10 10 17 10q8 0 13 -10
q0 -2 29 -54q23 -44 23 -49z" />
    <glyph glyph-name="Udieresis" unicode="&#xdc;" horiz-adv-x="702" 
d="M823 681q0 -11 -36 -16q-42 -6 -59 -25t-33 -95l-60 -271q-29 -129 -106 -206q-85 -85 -210 -85q-210 0 -210 190q0 45 12 101l60 271q12 53 12 74q0 29 -21 39q-8 4 -39 7q-21 3 -21 14q0 17 18 17h275q11 0 11 -12q0 -15 -35 -19q-43 -6 -60 -25t-34 -95l-56 -258
q-14 -64 -14 -110q0 -133 129 -133q184 0 238 243l57 258q11 53 11 74q0 29 -21 39q-7 4 -38 7q-21 3 -21 14q0 17 18 17h222q11 0 11 -15zM615 803q0 -22 -16.5 -39t-37.5 -17q-17 0 -28 11.5t-11 28.5q0 22 16 39t37 17q17 0 28.5 -11.5t11.5 -28.5zM487 803
q0 -22 -16.5 -39t-37.5 -17q-17 0 -28 11.5t-11 28.5q0 22 16 39t37 17q18 0 29 -11.5t11 -28.5z" />
    <glyph glyph-name="Yacute" unicode="&#xdd;" horiz-adv-x="627" 
d="M743 684q0 -14 -17 -17q-28 -5 -37 -8q-15 -6 -32 -21q-20 -18 -75 -95l-179 -250l-31 -143q-12 -54 -12 -74q0 -29 20 -38q9 -4 39 -8q21 -2 21 -13q0 -17 -18 -17h-273q-12 0 -12 12q0 14 35 19q43 6 60 26t34 93l31 142l-90 257q-11 34 -36 89q-12 16 -25 21
q-2 1 -31 8q-11 2 -11 12q0 17 18 17h257q12 0 12 -12q0 -15 -22 -18l-42 -5q-22 -7 -22 -33q0 -21 15 -65l72 -209q45 65 139 194q48 64 48 90q0 23 -34.5 26.5t-34.5 14.5q0 17 18 17h204q11 0 11 -12zM614 852q0 -20 -29 -42q-11 -9 -69 -43t-64 -34q-10 0 -10 11
q0 5 5 11t59 59q15 16 48 46q22 16 37 16q23 0 23 -24z" />
    <glyph glyph-name="Thorn" unicode="&#xde;" horiz-adv-x="525" 
d="M596 426q0 -24 -5 -47q-23 -99 -97.5 -154t-176.5 -55q-42 0 -77 12q-21 -95 -21 -113q0 -25 19 -33q6 -3 34 -7q18 -2 18 -11q0 -18 -17 -18h-253q-11 0 -11 11q0 15 32 19q39 4 56 26q11 15 28 92l89 400q13 61 13 79q0 25 -18 33q-7 3 -34 7q-19 2 -19 12q0 17 18 17
h252q12 0 12 -11q0 -15 -32 -19q-40 -4 -56 -26q-11 -13 -21 -59q27 3 52 3q90 0 146 -33q69 -41 69 -125zM482 440q0 106 -106 106q-27 0 -57 -7l-71 -322q30 -6 56 -6q134 0 171 167q7 34 7 62z" />
    <glyph glyph-name="germandbls" unicode="&#xdf;" horiz-adv-x="452" 
d="M502 635q0 -25 -6 -51q-32 -144 -153 -175q110 -20 110 -130q0 -25 -7 -52q-51 -229 -276 -229q-20 0 -20 14q0 13 17 15t53 10q63 21 101 96q32 66 32 141q0 90 -67 111q-16 2 -31 4q-21 4 -21 15q0 14 15 19q1 0 26 3q48 7 79 36q27 25 42 71q14 42 14 83q0 69 -57 69
q-45 0 -81 -52q-24 -34 -43 -121l-110 -497q-3 -15 -18 -15h-53q-13 0 -13 10q0 3 1 6l90 411q29 135 105 218q88 96 172 96q99 0 99 -106z" />
    <glyph glyph-name="agrave" unicode="&#xe0;" horiz-adv-x="411" 
d="M397 63q0 -5 -7 -12q-22 -22 -56 -41q-38 -21 -65 -21q-40 0 -40 53q0 4 1 8q-69 -61 -124 -61q-33 0 -55 19t-22 52q0 69 88 117q46 25 148 53q8 29 15 57q8 35 8 58q0 47 -46 47q-25 0 -43.5 -16.5t-18.5 -40.5q0 -12 6 -23q-75 -38 -79 -38q-16 0 -16 25
q0 36 67.5 85.5t120.5 49.5q37 0 66 -23t29 -59q0 -17 -11 -69l-43 -196q-3 -12 -3 -20q0 -20 18 -20q12 0 31 11.5t23 11.5q8 0 8 -7zM258 200q-62 -20 -89 -36q-50 -31 -50 -76t45 -45q38 0 67 33zM309 484q0 -12 -13 -12q-5 0 -49.5 34t-52.5 43q-14 15 -14 30
q0 32 31 32q16 0 31 -16q8 -10 37 -56q30 -49 30 -55z" />
    <glyph glyph-name="aacute" unicode="&#xe1;" horiz-adv-x="412" 
d="M397 63q0 -5 -7 -12q-22 -22 -56 -41q-38 -21 -65 -21q-40 0 -40 53q0 4 1 8q-69 -61 -124 -61q-33 0 -55 19t-22 52q0 69 88 117q46 25 148 53q8 29 15 57q8 35 8 58q0 47 -46 47q-25 0 -43.5 -16.5t-18.5 -40.5q0 -12 6 -23q-75 -38 -79 -38q-16 0 -16 25
q0 36 67.5 85.5t120.5 49.5q37 0 66 -23t29 -59q0 -17 -11 -69l-43 -196q-3 -12 -3 -20q0 -20 18 -20q12 0 31 11.5t23 11.5q8 0 8 -7zM258 200q-62 -20 -89 -36q-50 -31 -50 -76t45 -45q38 0 67 33zM426 591q0 -21 -29 -43q-11 -8 -69 -42t-63 -34q-11 0 -11 10q0 6 6 13
l58 58q15 16 48 46q22 16 37 16q23 0 23 -24z" />
    <glyph glyph-name="acircumflex" unicode="&#xe2;" horiz-adv-x="411" 
d="M397 63q0 -5 -7 -12q-22 -22 -56 -41q-38 -21 -65 -21q-40 0 -40 53q0 4 1 8q-69 -61 -124 -61q-33 0 -55 19t-22 52q0 69 88 117q46 25 148 53q8 29 15 57q8 35 8 58q0 47 -46 47q-25 0 -43.5 -16.5t-18.5 -40.5q0 -12 6 -23q-75 -38 -79 -38q-16 0 -16 25
q0 36 67.5 85.5t120.5 49.5q37 0 66 -23t29 -59q0 -17 -11 -69l-43 -196q-3 -12 -3 -20q0 -20 18 -20q12 0 31 11.5t23 11.5q8 0 8 -7zM258 200q-62 -20 -89 -36q-50 -31 -50 -76t45 -45q38 0 67 33zM369 490q0 -12 -13 -12h-26q-11 0 -16 11l-26 58l-53 -58
q-10 -12 -34 -12q-14 0 -14 8q0 6 7 12l93 96q10 10 17 10q8 0 13 -10q0 -2 29 -54q23 -44 23 -49z" />
    <glyph glyph-name="atilde" unicode="&#xe3;" horiz-adv-x="411" 
d="M397 63q0 -5 -7 -12q-22 -22 -56 -41q-38 -21 -65 -21q-40 0 -40 53q0 4 1 8q-69 -61 -124 -61q-33 0 -55 19t-22 52q0 69 88 117q46 25 148 53q8 29 15 57q8 35 8 58q0 47 -46 47q-25 0 -43.5 -16.5t-18.5 -40.5q0 -12 6 -23q-75 -38 -79 -38q-16 0 -16 25
q0 36 67.5 85.5t120.5 49.5q37 0 66 -23t29 -59q0 -17 -11 -69l-43 -196q-3 -12 -3 -20q0 -20 18 -20q12 0 31 11.5t23 11.5q8 0 8 -7zM258 200q-62 -20 -89 -36q-50 -31 -50 -76t45 -45q38 0 67 33zM446 579q0 -6 -5 -13q-16 -24 -44 -44q-31 -22 -56 -22q-17 0 -48.5 13
t-49.5 13q-19 0 -37 -14.5t-23 -14.5q-12 0 -12 11q0 6 5 12q45 66 101 66q16 0 46.5 -12.5t46.5 -12.5q20 0 40.5 14.5t24.5 14.5q11 0 11 -11z" />
    <glyph glyph-name="adieresis" unicode="&#xe4;" horiz-adv-x="411" 
d="M397 63q0 -5 -7 -12q-22 -22 -56 -41q-38 -21 -65 -21q-40 0 -40 53q0 4 1 8q-69 -61 -124 -61q-33 0 -55 19t-22 52q0 69 88 117q46 25 148 53q8 29 15 57q8 35 8 58q0 47 -46 47q-25 0 -43.5 -16.5t-18.5 -40.5q0 -12 6 -23q-75 -38 -79 -38q-16 0 -16 25
q0 36 67.5 85.5t120.5 49.5q37 0 66 -23t29 -59q0 -17 -11 -69l-43 -196q-3 -12 -3 -20q0 -20 18 -20q12 0 31 11.5t23 11.5q8 0 8 -7zM258 200q-62 -20 -89 -36q-50 -31 -50 -76t45 -45q38 0 67 33zM400 551q0 -21 -15.5 -37t-35.5 -16q-38 0 -38 38q0 21 15.5 37t35.5 16
q38 0 38 -38zM278 551q0 -21 -15.5 -37t-35.5 -16q-37 0 -37 38q0 21 15 37t36 16q37 0 37 -38z" />
    <glyph glyph-name="aring" unicode="&#xe5;" horiz-adv-x="411" 
d="M397 63q0 -5 -7 -12q-22 -22 -56 -41q-38 -21 -65 -21q-40 0 -40 53q0 4 1 8q-69 -61 -124 -61q-33 0 -55 19t-22 52q0 69 88 117q46 25 148 53q8 29 15 57q8 35 8 58q0 47 -46 47q-25 0 -43.5 -16.5t-18.5 -40.5q0 -12 6 -23q-75 -38 -79 -38q-16 0 -16 25
q0 36 67.5 85.5t120.5 49.5q37 0 66 -23t29 -59q0 -17 -11 -69l-43 -196q-3 -12 -3 -20q0 -20 18 -20q12 0 31 11.5t23 11.5q8 0 8 -7zM258 200q-62 -20 -89 -36q-50 -31 -50 -76t45 -45q38 0 67 33zM359 549q0 -29 -22.5 -51t-51.5 -22q-24 0 -40 16t-16 39q0 30 22.5 52
t51.5 22q24 0 40 -16t16 -40zM321 545q0 24 -23 24q-13 0 -22 -10t-9 -23q0 -24 23 -24q13 0 22 10t9 23z" />
    <glyph glyph-name="ae" unicode="&#xe6;" horiz-adv-x="602" 
d="M597 353q0 -81 -84 -130q-71 -42 -160 -42h-13q-1 -18 -1 -30q0 -104 95 -104q41 0 74 21q20 12 44 38q19 20 25 20q10 0 10 -10q0 -7 -5 -15q-29 -52 -80 -82t-109 -30q-94 0 -130 77q-29 -33 -71 -55q-46 -24 -86 -24q-35 0 -56 21.5t-21 55.5q0 73 84 118
q70 38 150 38q8 30 16 61q9 37 9 62q0 47 -46 47q-25 0 -43.5 -16.5t-18.5 -40.5q0 -12 6 -23q-75 -38 -79 -38q-17 0 -17 25q0 36 68 85.5t121 49.5q68 0 87 -56q66 56 142 56q38 0 63.5 -20.5t25.5 -58.5zM521 354q0 41 -38 41q-50 0 -93 -68q-34 -54 -45 -114h12h3
q66 0 113.5 38t47.5 103zM255 187q-51 0 -91 -24q-46 -28 -46 -77q0 -45 46 -45q47 0 69 53q5 12 22 93z" />
    <glyph glyph-name="ccedilla" unicode="&#xe7;" horiz-adv-x="400" 
d="M421 374q0 -7 -13.5 -34t-20 -36.5t-14.5 -9.5t-10 11q-6 50 -13 64q-15 27 -56 27q-72 0 -120 -79q-40 -68 -40 -145q0 -51 25 -83q28 -36 77 -36q45 0 91.5 33l46.5 33q10 0 10 -9q0 -8 -10 -21q-82 -100 -180 -101l-14 -24q3 1 7 1q36 0 36 -36q0 -27 -19.5 -44.5
t-46.5 -17.5q-15 0 -30 8q-18 10 -18 24q0 8 7 8q2 0 12.5 -7.5t24.5 -7.5q28 0 28 28q0 17 -17 17q-5 0 -11 -2.5t-9 -2.5q-6 0 -6 6q0 5 28 52q-59 7 -90.5 47t-31.5 101q0 107 76 198q81 96 186 96q90 0 113 -49q2 -5 2 -9z" />
    <glyph glyph-name="egrave" unicode="&#xe8;" horiz-adv-x="418" 
d="M391 354q0 -85 -90 -135q-72 -41 -167 -46q-1 -9 -1 -18q0 -108 96 -108q41 0 74 21q19 12 43 38q19 21 25 21q10 0 10 -11q0 -6 -5 -15q-29 -51 -79.5 -81.5t-107.5 -30.5q-69 0 -109.5 40.5t-40.5 109.5q0 88 53 165q36 53 91 89q61 39 119 39q39 0 64 -20t25 -58z
M315 355q0 41 -37 41q-52 0 -95 -72q-34 -57 -46 -119q150 2 177 132q1 10 1 18zM333 484q0 -12 -13 -12q-5 0 -49.5 34t-52.5 43q-14 15 -14 30q0 32 32 32q15 0 30 -16q8 -10 37 -56q30 -49 30 -55z" />
    <glyph glyph-name="eacute" unicode="&#xe9;" horiz-adv-x="423" 
d="M391 354q0 -85 -90 -135q-72 -41 -167 -46q-1 -9 -1 -18q0 -108 96 -108q41 0 74 21q19 12 43 38q19 21 25 21q10 0 10 -11q0 -6 -5 -15q-29 -51 -79.5 -81.5t-107.5 -30.5q-69 0 -109.5 40.5t-40.5 109.5q0 88 53 165q36 53 91 89q61 39 119 39q39 0 64 -20t25 -58z
M315 355q0 41 -37 41q-52 0 -95 -72q-34 -57 -46 -119q150 2 177 132q1 10 1 18zM501 591q0 -21 -28 -43q-12 -8 -70 -42t-63 -34q-11 0 -11 10q0 6 6 13l58 58q16 16 49 46q21 16 36 16q23 0 23 -24z" />
    <glyph glyph-name="ecircumflex" unicode="&#xea;" horiz-adv-x="423" 
d="M391 354q0 -85 -90 -135q-72 -41 -167 -46q-1 -9 -1 -18q0 -108 96 -108q41 0 74 21q19 12 43 38q19 21 25 21q10 0 10 -11q0 -6 -5 -15q-29 -51 -79.5 -81.5t-107.5 -30.5q-69 0 -109.5 40.5t-40.5 109.5q0 88 53 165q36 53 91 89q61 39 119 39q39 0 64 -20t25 -58z
M315 355q0 41 -37 41q-52 0 -95 -72q-34 -57 -46 -119q150 2 177 132q1 10 1 18zM415 490q0 -12 -13 -12h-26q-11 0 -16 11l-26 58l-53 -58q-10 -12 -33 -12q-15 0 -15 8q0 6 7 12l94 96q9 10 16 10q8 0 13 -10q1 -2 29 -54q23 -44 23 -49z" />
    <glyph glyph-name="edieresis" unicode="&#xeb;" horiz-adv-x="430" 
d="M391 354q0 -85 -90 -135q-72 -41 -167 -46q-1 -9 -1 -18q0 -108 96 -108q41 0 74 21q19 12 43 38q19 21 25 21q10 0 10 -11q0 -6 -5 -15q-29 -51 -79.5 -81.5t-107.5 -30.5q-69 0 -109.5 40.5t-40.5 109.5q0 88 53 165q36 53 91 89q61 39 119 39q39 0 64 -20t25 -58z
M315 355q0 41 -37 41q-52 0 -95 -72q-34 -57 -46 -119q150 2 177 132q1 10 1 18zM460 551q0 -21 -15.5 -37t-35.5 -16q-38 0 -38 38q0 21 15.5 37t35.5 16q38 0 38 -38zM338 551q0 -21 -15.5 -37t-35.5 -16q-37 0 -37 38q0 21 15 37t36 16q37 0 37 -38z" />
    <glyph glyph-name="igrave" unicode="&#xec;" horiz-adv-x="291" 
d="M224 484q0 -12 -13 -12q-5 0 -49.5 34t-52.5 43q-14 15 -14 30q0 32 31 32q16 0 31 -16q8 -10 37 -56q30 -49 30 -55zM257 68q0 -6 -7 -13q-68 -67 -130 -67q-41 0 -41 55q0 15 4 33l50 222q4 22 4 29q0 17 -33.5 24.5t-33.5 15.5q0 10 15 15q140 48 151 48q8 0 8 -8v-4
l-73 -333q-3 -13 -3 -21q0 -19 16 -19q13 0 36 15t29 15q8 0 8 -7z" />
    <glyph glyph-name="iacute" unicode="&#xed;" horiz-adv-x="291" 
d="M356 591q0 -21 -29 -43q-11 -8 -69 -42t-63 -34q-11 0 -11 10q0 6 6 13l58 58q15 16 48 46q22 16 37 16q23 0 23 -24zM257 68q0 -6 -7 -13q-68 -67 -130 -67q-41 0 -41 55q0 15 4 33l50 222q4 22 4 29q0 17 -33.5 24.5t-33.5 15.5q0 10 15 15q140 48 151 48q8 0 8 -8v-4
l-73 -333q-3 -13 -3 -21q0 -19 16 -19q13 0 36 15t29 15q8 0 8 -7z" />
    <glyph glyph-name="icircumflex" unicode="&#xee;" horiz-adv-x="291" 
d="M294 490q0 -12 -13 -12h-26q-11 0 -16 11l-26 58l-53 -58q-10 -12 -34 -12q-14 0 -14 8q0 6 7 12l93 96q10 10 17 10q8 0 13 -10q0 -2 29 -54q23 -44 23 -49zM257 68q0 -6 -7 -13q-68 -67 -130 -67q-41 0 -41 55q0 15 4 33l50 222q4 22 4 29q0 17 -33.5 24.5t-33.5 15.5
q0 10 15 15q140 48 151 48q8 0 8 -8v-4l-73 -333q-3 -13 -3 -21q0 -19 16 -19q13 0 36 15t29 15q8 0 8 -7z" />
    <glyph glyph-name="idieresis" unicode="&#xef;" horiz-adv-x="291" 
d="M330 551q0 -21 -15.5 -37t-35.5 -16q-38 0 -38 38q0 21 15.5 37t35.5 16q38 0 38 -38zM208 551q0 -21 -15.5 -37t-35.5 -16q-37 0 -37 38q0 21 15 37t36 16q37 0 37 -38zM257 68q0 -6 -7 -13q-68 -67 -130 -67q-41 0 -41 55q0 15 4 33l50 222q4 22 4 29q0 17 -33.5 24.5
t-33.5 15.5q0 10 15 15q140 48 151 48q8 0 8 -8v-4l-73 -333q-3 -13 -3 -21q0 -19 16 -19q13 0 36 15t29 15q8 0 8 -7z" />
    <glyph glyph-name="eth" unicode="&#xf0;" horiz-adv-x="553" 
d="M569 707q0 -19 -18 -29l-106 -60q55 -81 55 -196q0 -148 -72 -278q-85 -156 -220 -156q-72 0 -115.5 47t-43.5 120q0 103 72 189q75 90 176 90q82 0 111 -66q3 28 3 55q0 93 -31 157l-147 -84q-7 -4 -14 -4q-20 0 -20 18t18 28l141 81q-36 50 -90 78q-9 4 -28 13
q-9 5 -9 13q0 20 22 20q30 0 87 -33q51 -30 77 -57q124 72 133 72q19 0 19 -18zM376 253q0 56 -18 94q-23 51 -72 51q-70 0 -109 -84q-31 -66 -31 -145q0 -56 17 -94q24 -51 73 -51q69 0 109 84q31 66 31 145z" />
    <glyph glyph-name="ntilde" unicode="&#xf1;" horiz-adv-x="530" 
d="M506 69q0 -5 -8 -13q-23 -24 -60 -44q-41 -23 -70 -23q-42 0 -42 54q0 18 6 40l36 150q18 75 18 103q0 41 -37 41q-15 0 -31 -8q-53 -30 -100 -111q-41 -72 -56 -142v1l-20 -93q-5 -25 -41 -25q-45 0 -45 20q0 3 1 7l59 273q5 21 5 29q0 17 -33.5 24t-33.5 18q0 7 15 12
q134 49 151 49q8 0 8 -8q0 -6 -9 -48l-21 -96q85 152 196 152q74 0 74 -85q0 -32 -9 -76l-40 -184q-3 -13 -3 -21q0 -19 17 -19q12 0 35.5 15t29.5 15q8 0 8 -7zM491 579q0 -6 -5 -13q-16 -24 -44 -44q-31 -22 -56 -22q-17 0 -48.5 13t-49.5 13q-20 0 -37.5 -14.5
t-22.5 -14.5q-12 0 -12 11q0 6 5 12q45 66 100 66q17 0 47.5 -12.5t46.5 -12.5q20 0 40.5 14.5t24.5 14.5q11 0 11 -11z" />
    <glyph glyph-name="ograve" unicode="&#xf2;" horiz-adv-x="479" 
d="M465 266q0 -108 -78 -193t-186 -85q-75 0 -121 46t-46 121q0 109 78 194t186 85q75 0 121 -46t46 -122zM370 259q0 52 -19 88q-24 46 -72 46q-71 0 -114 -83q-35 -68 -35 -146q0 -52 18 -89q24 -46 72 -46q71 0 114 83q36 69 36 147zM314 484q0 -12 -13 -12
q-5 0 -49.5 34t-52.5 43q-14 15 -14 30q0 32 31 32q16 0 31 -16q8 -10 37 -56q30 -49 30 -55z" />
    <glyph glyph-name="oacute" unicode="&#xf3;" horiz-adv-x="479" 
d="M465 266q0 -108 -78 -193t-186 -85q-75 0 -121 46t-46 121q0 109 78 194t186 85q75 0 121 -46t46 -122zM370 259q0 52 -19 88q-24 46 -72 46q-71 0 -114 -83q-35 -68 -35 -146q0 -52 18 -89q24 -46 72 -46q71 0 114 83q36 69 36 147zM461 591q0 -21 -29 -43
q-11 -8 -69 -42t-63 -34q-11 0 -11 10q0 6 6 13l58 58q15 16 48 46q22 16 37 16q23 0 23 -24z" />
    <glyph glyph-name="ocircumflex" unicode="&#xf4;" horiz-adv-x="479" 
d="M465 266q0 -108 -78 -193t-186 -85q-75 0 -121 46t-46 121q0 109 78 194t186 85q75 0 121 -46t46 -122zM370 259q0 52 -19 88q-24 46 -72 46q-71 0 -114 -83q-35 -68 -35 -146q0 -52 18 -89q24 -46 72 -46q71 0 114 83q36 69 36 147zM405 490q0 -12 -13 -12h-26
q-11 0 -16 11l-26 58l-52 -58q-11 -12 -34 -12q-14 0 -14 8q0 6 6 12l94 96q9 10 16 10q9 0 13 -10q1 -2 29 -54q23 -44 23 -49z" />
    <glyph glyph-name="otilde" unicode="&#xf5;" horiz-adv-x="479" 
d="M465 266q0 -108 -78 -193t-186 -85q-75 0 -121 46t-46 121q0 109 78 194t186 85q75 0 121 -46t46 -122zM370 259q0 52 -19 88q-24 46 -72 46q-71 0 -114 -83q-35 -68 -35 -146q0 -52 18 -89q24 -46 72 -46q71 0 114 83q36 69 36 147zM462 579q0 -6 -4 -13
q-17 -24 -44 -44q-32 -22 -57 -22q-17 0 -48.5 13t-49.5 13q-19 0 -37 -14.5t-23 -14.5q-12 0 -12 11q0 6 5 12q45 66 101 66q16 0 46.5 -12.5t46.5 -12.5q20 0 40.5 14.5t24.5 14.5q11 0 11 -11z" />
    <glyph glyph-name="odieresis" unicode="&#xf6;" horiz-adv-x="479" 
d="M465 266q0 -108 -78 -193t-186 -85q-75 0 -121 46t-46 121q0 109 78 194t186 85q75 0 121 -46t46 -122zM370 259q0 52 -19 88q-24 46 -72 46q-71 0 -114 -83q-35 -68 -35 -146q0 -52 18 -89q24 -46 72 -46q71 0 114 83q36 69 36 147zM425 551q0 -21 -15.5 -37t-35.5 -16
q-38 0 -38 38q0 21 15.5 37t35.5 16q38 0 38 -38zM303 551q0 -21 -15.5 -37t-35.5 -16q-37 0 -37 38q0 21 15 37t36 16q37 0 37 -38z" />
    <glyph glyph-name="divide" unicode="&#xf7;" horiz-adv-x="476" 
d="M301 386q0 -23 -17 -41t-40 -18q-18 0 -29.5 12.5t-11.5 30.5q0 23 16.5 41t39.5 18q18 0 30 -12.5t12 -30.5zM431 231q0 -12 -8.5 -22t-21.5 -10h-373q-23 0 -23 24q0 13 9 22.5t21 9.5h374q22 0 22 -24zM233 79q0 -23 -17 -40.5t-40 -17.5q-18 0 -29.5 12.5t-11.5 30.5
q0 23 17 40.5t39 17.5q18 0 30 -12.5t12 -30.5z" />
    <glyph glyph-name="oslash" unicode="&#xf8;" horiz-adv-x="488" 
d="M479 267q0 -110 -80 -194t-189 -84q-49 0 -87 20q-42 -54 -53 -54q-19 0 -19 17q0 10 40 58q-52 47 -52 127q0 109 80 193t189 84q49 0 88 -20q39 51 51 51q19 0 19 -17q0 -10 -38 -56q51 -46 51 -125zM354 361q-25 32 -65 32q-72 0 -116 -81q-36 -68 -36 -147
q0 -37 9 -66zM381 259q0 35 -8 64l-208 -261q24 -32 64 -32q72 0 116 82q36 69 36 147z" />
    <glyph glyph-name="ugrave" unicode="&#xf9;" horiz-adv-x="506" 
d="M497 68q0 -5 -8 -13q-25 -25 -60 -44q-40 -23 -70 -23q-41 0 -41 55q0 15 8 49q-81 -105 -170 -105q-80 0 -80 83q0 22 6 52l39 176q5 22 5 29q0 17 -33.5 24t-33.5 19q0 7 15 12l141 46q6 2 10 2q8 0 8 -8v-5l-63 -283q-4 -21 -4 -37q0 -47 39 -47q46 0 87 46
q35 38 51 87q33 105 33 142q0 20 -33.5 27t-33.5 18q0 7 15 12l141 47q6 2 11 2q8 0 8 -9q0 -2 -1 -4l-73 -333q-3 -12 -3 -21q0 -19 17 -19q12 0 35.5 15.5t29.5 15.5q8 0 8 -8zM329 484q0 -12 -12 -12q-6 0 -50 34t-53 43q-14 15 -14 30q0 32 32 32q16 0 30 -16
q9 -10 38 -56q29 -49 29 -55z" />
    <glyph glyph-name="uacute" unicode="&#xfa;" horiz-adv-x="506" 
d="M497 68q0 -5 -8 -13q-25 -25 -60 -44q-40 -23 -70 -23q-41 0 -41 55q0 15 8 49q-81 -105 -170 -105q-80 0 -80 83q0 22 6 52l39 176q5 22 5 29q0 17 -33.5 24t-33.5 19q0 7 15 12l141 46q6 2 10 2q8 0 8 -8v-5l-63 -283q-4 -21 -4 -37q0 -47 39 -47q46 0 87 46
q35 38 51 87q33 105 33 142q0 20 -33.5 27t-33.5 18q0 7 15 12l141 47q6 2 11 2q8 0 8 -9q0 -2 -1 -4l-73 -333q-3 -12 -3 -21q0 -19 17 -19q12 0 35.5 15.5t29.5 15.5q8 0 8 -8zM467 591q0 -21 -29 -43q-11 -8 -69 -42t-64 -34q-10 0 -10 10q0 6 6 13l58 58q15 16 48 46
q22 16 37 16q23 0 23 -24z" />
    <glyph glyph-name="ucircumflex" unicode="&#xfb;" horiz-adv-x="506" 
d="M497 68q0 -5 -8 -13q-25 -25 -60 -44q-40 -23 -70 -23q-41 0 -41 55q0 15 8 49q-81 -105 -170 -105q-80 0 -80 83q0 22 6 52l39 176q5 22 5 29q0 17 -33.5 24t-33.5 19q0 7 15 12l141 46q6 2 10 2q8 0 8 -8v-5l-63 -283q-4 -21 -4 -37q0 -47 39 -47q46 0 87 46
q35 38 51 87q33 105 33 142q0 20 -33.5 27t-33.5 18q0 7 15 12l141 47q6 2 11 2q8 0 8 -9q0 -2 -1 -4l-73 -333q-3 -12 -3 -21q0 -19 17 -19q12 0 35.5 15.5t29.5 15.5q8 0 8 -8zM419 490q0 -12 -13 -12h-25q-12 0 -17 11l-25 58l-53 -58q-11 -12 -34 -12q-14 0 -14 8
q0 6 6 12l94 96q9 10 17 10t12 -10q1 -2 29 -54q23 -44 23 -49z" />
    <glyph glyph-name="udieresis" unicode="&#xfc;" horiz-adv-x="506" 
d="M497 68q0 -5 -8 -13q-25 -25 -60 -44q-40 -23 -70 -23q-41 0 -41 55q0 15 8 49q-81 -105 -170 -105q-80 0 -80 83q0 22 6 52l39 176q5 22 5 29q0 17 -33.5 24t-33.5 19q0 7 15 12l141 46q6 2 10 2q8 0 8 -8v-5l-63 -283q-4 -21 -4 -37q0 -47 39 -47q46 0 87 46
q35 38 51 87q33 105 33 142q0 20 -33.5 27t-33.5 18q0 7 15 12l141 47q6 2 11 2q8 0 8 -9q0 -2 -1 -4l-73 -333q-3 -12 -3 -21q0 -19 17 -19q12 0 35.5 15.5t29.5 15.5q8 0 8 -8zM445 551q0 -21 -15.5 -37t-35.5 -16q-38 0 -38 38q0 21 15.5 37t35.5 16q38 0 38 -38z
M323 551q0 -21 -15.5 -37t-35.5 -16q-37 0 -37 38q0 21 15 37t36 16q37 0 37 -38z" />
    <glyph glyph-name="yacute" unicode="&#xfd;" horiz-adv-x="408" 
d="M415 406q0 -30 -11 -62q-36 -106 -121.5 -248t-162.5 -227q-93 -103 -171 -103q-53 0 -53 36q0 19 13.5 47.5t29.5 28.5q9 0 21.5 -21.5t36.5 -21.5q54 0 105 69q44 60 54 120q4 28 4 64q0 61 -14 139q-17 99 -45 123q-18 15 -46 15h-4.5h-5.5q-12 0 -12 10q0 7 13.5 13
t58.5 24q51 19 57 19q7 0 13 -9q31 -43 48 -139q15 -79 15 -151q0 -24 -2 -47q108 163 108 255q0 14 -7 39.5t-7 39.5q0 43 42 43q43 0 43 -56zM372 591q0 -21 -29 -43q-11 -8 -69 -42t-63 -34q-11 0 -11 10q0 6 6 13l58 58q15 16 48 46q22 16 37 16q23 0 23 -24z" />
    <glyph glyph-name="thorn" unicode="&#xfe;" horiz-adv-x="499" 
d="M490 296q0 -118 -77 -210q-82 -96 -197 -96q-42 0 -71 16l-26 -117q-7 -33 -7 -49q0 -30 22 -40q10 -5 42 -8q22 -2 22 -12q0 -16 -16 -16h-243q-10 0 -10 10q0 14 30 18q37 5 52 24q11 15 24 73l158 715q5 21 5 28q0 17 -32.5 24t-32.5 16q0 11 14 16q10 5 77.5 26.5
t70.5 21.5q8 0 8 -9v-4l-81 -365q100 69 148 69q59 0 89.5 -35.5t30.5 -95.5zM392 266q0 98 -79 98q-35 0 -100 -47l-39 -179q-8 -37 -8 -57q0 -51 58 -51q76 0 126 82q42 72 42 154z" />
    <glyph glyph-name="ydieresis" unicode="&#xff;" horiz-adv-x="408" 
d="M415 406q0 -30 -11 -62q-36 -106 -121.5 -248t-162.5 -227q-93 -103 -171 -103q-53 0 -53 36q0 19 13.5 47.5t29.5 28.5q9 0 21.5 -21.5t36.5 -21.5q54 0 105 69q44 60 54 120q4 28 4 64q0 61 -14 139q-17 99 -45 123q-18 15 -46 15h-4.5h-5.5q-12 0 -12 10q0 7 13.5 13
t58.5 24q51 19 57 19q7 0 13 -9q31 -43 48 -139q15 -79 15 -151q0 -24 -2 -47q108 163 108 255q0 14 -7 39.5t-7 39.5q0 43 42 43q43 0 43 -56zM405 551q0 -21 -15.5 -37t-35.5 -16q-38 0 -38 38q0 21 15.5 37t35.5 16q38 0 38 -38zM283 551q0 -21 -15.5 -37t-35.5 -16
q-37 0 -37 38q0 21 15 37t36 16q37 0 37 -38z" />
    <glyph glyph-name="dotlessi" unicode="&#x131;" horiz-adv-x="291" 
d="M257 68q0 -6 -7 -13q-68 -67 -130 -67q-41 0 -41 55q0 15 4 33l50 222q4 22 4 29q0 17 -33.5 24.5t-33.5 15.5q0 10 15 15q140 48 151 48q8 0 8 -8v-4l-73 -333q-3 -13 -3 -21q0 -19 16 -19q13 0 36 15t29 15q8 0 8 -7z" />
    <glyph glyph-name="Lslash" unicode="&#x141;" horiz-adv-x="541" 
d="M532 165q0 -16 -67 -145q-10 -20 -32 -20h-412q-12 0 -12 12q0 14 35 19q44 5 60.5 25t33.5 95l33 152q-76 -25 -80 -25q-21 0 -21 25q0 26 22 33l93 30l39 180q12 52 12 73q0 29 -21 39q-8 4 -38 8q-21 2 -21 13q0 17 18 17h273q12 0 12 -12q0 -14 -35 -19
q-43 -6 -60 -26t-34 -93l-31 -142q138 45 142 45q21 0 21 -25q0 -26 -22 -33l-155 -51l-58 -264q-3 -14 -3 -19q0 -16 31 -17t61 -1h14q43 0 63 9q25 11 61 53q26 32 52 65q9 10 16 10q10 0 10 -11z" />
    <glyph glyph-name="lslash" unicode="&#x142;" horiz-adv-x="344" 
d="M384 414q0 -21 -18 -27l-119 -38l-57 -263q-3 -13 -3 -21q0 -19 17 -19q14 0 36.5 15.5t27.5 15.5q8 0 8 -8q0 -6 -7 -13q-68 -67 -130 -67q-41 0 -41 55q0 15 4 33l53 242q-71 -24 -74 -24q-17 0 -17 21t18 27l85 27l53 242q5 22 5 29q0 17 -33.5 24.5t-33.5 15.5
q0 9 15 15q141 48 151 48q8 0 8 -9q0 -2 -1 -4l-72 -331q105 35 108 35q17 0 17 -21z" />
    <glyph glyph-name="OE" unicode="&#x152;" horiz-adv-x="936" 
d="M977 677v-4l-22 -133q-4 -18 -16 -18q-11 0 -14 12q-1 3 -3 28q-4 46 -12 64q-15 29 -52 32q-13 1 -38 1q-33 0 -56 -1t-31 -7t-13 -29l-51 -233h60h8.5h9.5q48 0 66 8q25 12 39 51q13 34 24 34t11 -11q0 -5 -8 -45q-8 -35 -23 -100q-4 -24 -16 -69q-4 -16 -17 -16
q-11 0 -11 12q0 7 2.5 21t2.5 20q0 37 -32 49q-18 7 -62 7h-63l-60 -274q-3 -13 -3 -18q0 -17 32 -18q28 -1 69 -1q32 0 48 1q48 4 81 46q26 40 53 80q7 11 16 11q11 0 11 -10q0 -5 -2 -10l-45 -136q-3 -8 -29 -21h-372q10 0 -42 -10.5t-107 -10.5q-126 0 -198.5 75
t-72.5 201q0 180 126 319q129 144 308 144q82 0 134 -22h352q18 0 18 -19zM600 576q0 52 -42 78q-35 22 -91 22q-143 0 -228 -151q-71 -126 -71 -280q0 -93 35 -152q44 -71 130 -71q148 0 180 143l83 378q4 17 4 33z" />
    <glyph glyph-name="oe" unicode="&#x153;" horiz-adv-x="720" 
d="M710 355q0 -85 -90 -135q-72 -40 -167 -45q-1 -10 -1 -19q0 -107 96 -107q40 0 73 20q20 13 44 38q19 21 25 21q10 0 10 -11q0 -6 -5 -14q-30 -52 -80 -82t-108 -30q-86 0 -129 70q-75 -72 -171 -72q-75 0 -121 45.5t-46 121.5q0 108 78 193t186 85q105 0 146 -83
q81 82 171 82q39 0 64 -20t25 -58zM634 355q0 42 -38 42q-51 0 -94 -72q-34 -56 -46 -119q150 2 176 132q2 9 2 17zM376 259q0 53 -19 88q-24 46 -72 46q-71 0 -114 -82q-35 -68 -35 -147q0 -52 18 -88q24 -46 72 -46q71 0 114 83q36 68 36 146z" />
    <glyph glyph-name="Scaron" unicode="&#x160;" horiz-adv-x="470" 
d="M521 678q0 -5 -2 -12l-24 -108q-4 -19 -19 -19q-12 0 -12 13q0 7 2 20.5t2 19.5q0 81 -93 81q-56 0 -98 -35q-45 -37 -45 -91q0 -50 58 -99q54 -43 109 -86q58 -56 58 -123q0 -31 -9 -65q-26 -92 -101 -144q-71 -50 -169 -50q-40 0 -85 10q-64 13 -64 38q0 4 1 10l14 84
q2 14 7 43q4 20 18 20q13 0 13 -19v-7.5v-6.5q0 -125 115 -125q66 0 110 44.5t44 110.5q0 53 -57 102q-52 41 -105 83q-56 56 -56 125q0 102 79 165q73 58 176 58q83 0 120 -19q13 -7 13 -18zM511 858q0 -4 -4 -8l-93 -94q-8 -7 -14 -7t-10 7q-51 93 -51 100q0 11 25 11
q20 0 25 -11l26 -56l55 57q9 10 26 10q15 0 15 -9z" />
    <glyph glyph-name="scaron" unicode="&#x161;" horiz-adv-x="366" 
d="M371 405q0 -5 -13 -44q-12 -35 -16 -45q-6 -14 -15 -14q-13 0 -13 13q0 4 1 12t1 12q0 58 -58 58q-31 0 -53.5 -18t-22.5 -47q0 -27 37 -58q33 -29 67 -58q37 -38 37 -82q0 -67 -58 -109q-53 -39 -122 -39q-107 0 -107 30q0 19 10 67q1 5 7 26q4 16 16 16q13 0 13 -16
q0 -88 70 -88q36 0 60.5 20.5t24.5 54.5q0 31 -34 63q-33 28 -65 55q-35 37 -35 81q0 66 55 105q49 34 119 34q26 0 54 -6q40 -8 40 -23zM396 587q0 -4 -3 -8l-94 -94q-7 -8 -13 -8q-7 0 -10 7q-51 94 -51 101q0 11 24 11q20 0 26 -11l25 -56l56 57q9 9 26 9q14 0 14 -8z
" />
    <glyph glyph-name="Ydieresis" unicode="&#x178;" horiz-adv-x="627" 
d="M743 684q0 -14 -17 -17q-28 -5 -37 -8q-15 -6 -32 -21q-20 -18 -75 -95l-179 -250l-31 -143q-12 -54 -12 -74q0 -29 20 -38q9 -4 39 -8q21 -2 21 -13q0 -17 -18 -17h-273q-12 0 -12 12q0 14 35 19q43 6 60 26t34 93l31 142l-90 257q-11 34 -36 89q-12 16 -25 21
q-2 1 -31 8q-11 2 -11 12q0 17 18 17h257q12 0 12 -12q0 -15 -22 -18l-42 -5q-22 -7 -22 -33q0 -21 15 -65l72 -209q45 65 139 194q48 64 48 90q0 23 -34.5 26.5t-34.5 14.5q0 17 18 17h204q11 0 11 -12zM589 803q0 -22 -16 -39t-38 -17q-17 0 -28 11.5t-11 28.5q0 22 16 39
t38 17q17 0 28 -11.5t11 -28.5zM461 803q0 -22 -16 -39t-38 -17q-17 0 -28 11.5t-11 28.5q0 22 16 39t38 17q17 0 28 -11.5t11 -28.5z" />
    <glyph glyph-name="Zcaron" unicode="&#x17d;" horiz-adv-x="528" 
d="M619 684q0 -7 -11 -22l-488 -618q55 -7 131 -7q60 0 95 4q47 5 81 41q17 18 42 62q19 32 29 32q12 0 12 -11q0 -3 -21.5 -69.5t-25.5 -74.5q-9 -21 -28 -21h-443q-13 0 -13 11q0 8 12 24l489 620q-51 4 -116 4q-103 0 -131 -16q-31 -17 -79 -107q-9 -15 -20 -15
q-12 0 -12 12q0 5 17 67q16 59 20 73q8 23 29 23h416q15 0 15 -12zM511 858q0 -4 -4 -8l-93 -94q-8 -7 -14 -7t-10 7q-51 93 -51 100q0 11 25 11q20 0 25 -11l26 -56l55 57q9 10 26 10q15 0 15 -9z" />
    <glyph glyph-name="zcaron" unicode="&#x17e;" horiz-adv-x="355" 
d="M365 409q0 -7 -9 -19q-165 -204 -258 -312q17 6 34 6q24 0 61.5 -19t56.5 -19q30 0 45 26.5t21 26.5q10 0 10 -13q0 -5 -2 -11q-27 -88 -109 -88q-25 0 -64 16t-60 16q-24 0 -55 -15t-33 -15q-14 0 -14 13q0 9 6 16l290 349h-85q-42 0 -60 -9q-24 -10 -44 -45
q-7 -13 -16 -13q-11 0 -11 11q0 7 19 60q17 48 23 63t16 15q11 0 11 -13q0 -14 12 -14h198q17 0 17 -13zM366 587q0 -4 -3 -8l-94 -94q-7 -8 -13 -8q-7 0 -10 7q-51 94 -51 101q0 11 24 11q20 0 26 -11l25 -56l56 57q9 9 26 9q14 0 14 -8z" />
    <glyph glyph-name="florin" unicode="&#x192;" horiz-adv-x="454" 
d="M561 696q0 -18 -12 -31.5t-29 -13.5q-14 0 -37.5 19t-47.5 19q-69 0 -115 -105q-13 -30 -49 -162h126q9 0 9 -7q0 -3 -2 -6q-17 -41 -32 -41h-115l-130 -459q-39 -137 -117 -218q-95 -100 -184 -100q-71 0 -71 53q0 18 12 31.5t30 13.5q14 0 37 -19t48 -19q47 0 87 54
q26 35 46 102q15 56 30 111l127 450h-64q-11 0 -11 10q0 14 42.5 24.5t49.5 28.5t19 53q40 105 98 165q96 100 185 100q70 0 70 -53z" />
    <glyph glyph-name="circumflex" unicode="&#x2c6;" horiz-adv-x="401" 
d="M361 490q0 -12 -13 -12h-25q-11 0 -16 11l-26 58l-53 -58q-11 -12 -34 -12q-14 0 -14 8q0 6 6 12l94 96q9 10 17 10t12 -10q1 -2 29 -54q23 -44 23 -49z" />
    <glyph glyph-name="caron" unicode="&#x2c7;" horiz-adv-x="300" 
d="M321 587q0 -4 -3 -8l-94 -94q-7 -8 -13 -8q-7 0 -10 7q-51 94 -51 101q0 11 24 11q20 0 26 -11l25 -56l56 57q9 9 26 9q14 0 14 -8z" />
    <glyph glyph-name="uni02C9" unicode="&#x2c9;" horiz-adv-x="331" 
d="M357 534q0 -26 -25 -26h-204q-15 0 -15 17q0 27 25 27h204q15 0 15 -18z" />
    <glyph glyph-name="breve" unicode="&#x2d8;" horiz-adv-x="368" 
d="M373 576q0 -3 -2 -8q-13 -37 -48 -60t-75 -23q-33 0 -57.5 22.5t-24.5 55.5q0 27 20 27q6 0 12 -13q9 -17 18 -24q16 -13 44 -13q57 0 84 39q8 11 17 11q12 0 12 -14z" />
    <glyph glyph-name="dotaccent" unicode="&#x2d9;" horiz-adv-x="263" 
d="M254 543q0 -26 -18.5 -47.5t-44.5 -21.5q-20 0 -33 15t-13 36q0 26 18.5 47.5t43.5 21.5q21 0 34 -15t13 -36z" />
    <glyph glyph-name="ring" unicode="&#x2da;" horiz-adv-x="405" 
d="M354 549q0 -29 -22.5 -51t-52.5 -22q-24 0 -40 16t-16 39q0 30 22.5 52t51.5 22q24 0 40.5 -16t16.5 -40zM316 545q0 24 -24 24q-12 0 -21.5 -10t-9.5 -23q0 -24 23 -24q13 0 22.5 10t9.5 23z" />
    <glyph glyph-name="ogonek" unicode="&#x2db;" horiz-adv-x="299" 
d="M202 -89q0 -16 -24.5 -27t-42.5 -11q-29 0 -47 18.5t-18 47.5q0 34 34 61h65q-54 -28 -54 -62q0 -32 31 -32q13 0 27 8.5t17 8.5q12 0 12 -12z" />
    <glyph glyph-name="tilde" unicode="&#x2dc;" horiz-adv-x="405" 
d="M405 579q0 -6 -5 -13q-16 -24 -44 -44q-31 -22 -56 -22q-18 0 -49.5 13t-48.5 13q-20 0 -37.5 -14.5t-23.5 -14.5q-11 0 -11 11q0 6 5 12q45 66 100 66q17 0 47.5 -12.5t46.5 -12.5q20 0 40.5 14.5t24.5 14.5q11 0 11 -11z" />
    <glyph glyph-name="hungarumlaut" unicode="&#x2dd;" horiz-adv-x="340" 
d="M386 578q0 -18 -28 -39q-12 -9 -73.5 -43.5t-67.5 -34.5q-9 0 -9 9q0 5 76 76q59 54 80 54q22 0 22 -22zM278 599q0 -19 -28 -40q-12 -8 -73.5 -42.5t-67.5 -34.5q-9 0 -9 8q0 6 76 76q59 55 80 55q22 0 22 -22z" />
    <glyph glyph-name="uni0394" unicode="&#x394;" 
 />
    <glyph glyph-name="uni03A9" unicode="&#x3a9;" 
 />
    <glyph glyph-name="uni03BC" unicode="&#x3bc;" horiz-adv-x="538" 
d="M529 61q0 -8 -7 -16q-23 -21 -56 -38q-37 -19 -65 -19q-39 0 -39 53q0 10 2 22q-90 -76 -154 -76q-39 0 -57 24q-10 -40 -10 -107v-21v-21q0 -77 -51 -77q-33 0 -33 37q0 7 2 14l102 461q4 21 4 29q0 17 -33 24t-33 16q0 12 15 17q12 5 79.5 26.5t71.5 21.5q8 0 8 -8
q0 -2 -1 -4l-61 -280q-5 -21 -5 -36q0 -52 54 -52q43 0 108 50l43 196q5 21 5 29q0 17 -33 24t-33 16q0 12 13.5 17t81 26.5t70.5 21.5q8 0 8 -8v-4l-57 -257q-17 -79 -17 -92q0 -22 18 -22q12 0 29.5 10.5t21.5 10.5q9 0 9 -8z" />
    <glyph glyph-name="pi" unicode="&#x3c0;" 
 />
    <glyph glyph-name="endash" unicode="&#x2013;" horiz-adv-x="807" 
d="M757 254q0 -31 -30 -31h-655q-22 0 -22 23q0 12 9 21.5t21 9.5h655q22 0 22 -23z" />
    <glyph glyph-name="emdash" unicode="&#x2014;" horiz-adv-x="457" 
d="M407 254q0 -31 -30 -31h-305q-22 0 -22 23q0 12 9 21.5t21 9.5h305q22 0 22 -23z" />
    <glyph glyph-name="quoteleft" unicode="&#x2018;" horiz-adv-x="178" 
d="M268 692q0 -12 -18 -23q-97 -59 -105 -131q11 7 26 7q44 0 44 -48q0 -30 -19.5 -52.5t-48.5 -22.5q-57 0 -57 67q0 54 36 111q33 52 82 84q33 21 46 21q14 0 14 -13z" />
    <glyph glyph-name="quoteright" unicode="&#x2019;" horiz-adv-x="178" 
d="M278 639q0 -55 -35 -109.5t-84 -86.5q-32 -21 -46 -21q-13 0 -13 13q0 12 18 23q97 60 104 132q-11 -7 -26 -7q-43 0 -43 48q0 30 19 52.5t49 22.5q57 0 57 -67z" />
    <glyph glyph-name="quotesinglbase" unicode="&#x201a;" horiz-adv-x="320" 
d="M225 48q0 -55 -36 -111q-34 -52 -83 -84q-32 -22 -46 -22q-13 0 -13 13t18 23q97 60 104 132q-11 -7 -26 -7q-43 0 -43 48q0 30 19 52.5t49 22.5q57 0 57 -67z" />
    <glyph glyph-name="quotedblleft" unicode="&#x201c;" horiz-adv-x="338" 
d="M428 692q0 -12 -17 -23q-97 -59 -105 -131q11 7 26 7q44 0 44 -48q0 -30 -19.5 -52.5t-49.5 -22.5q-56 0 -56 67q0 54 36 111q33 52 82 84q33 21 46 21t13 -13zM268 692q0 -12 -18 -23q-97 -59 -105 -131q11 7 26 7q44 0 44 -48q0 -30 -19.5 -52.5t-48.5 -22.5
q-57 0 -57 67q0 54 36 111q33 52 82 84q33 21 46 21q14 0 14 -13z" />
    <glyph glyph-name="quotedblright" unicode="&#x201d;" horiz-adv-x="338" 
d="M438 638q0 -54 -35 -111q-34 -52 -83 -84q-32 -21 -46 -21q-13 0 -13 13q0 12 17 23q98 59 105 131q-11 -7 -26 -7q-43 0 -43 48q0 30 19 52.5t49 22.5q56 0 56 -67zM278 638q0 -54 -36 -111q-34 -52 -83 -84q-32 -21 -46 -21q-13 0 -13 13q0 12 18 23q97 59 104 131
q-11 -7 -26 -7q-43 0 -43 48q0 30 19 52.5t49 22.5q57 0 57 -67z" />
    <glyph glyph-name="quotedblbase" unicode="&#x201e;" horiz-adv-x="480" 
d="M385 48q0 -55 -35 -111q-34 -52 -83 -84q-32 -22 -46 -22q-13 0 -13 13t17 23q98 60 105 132q-11 -7 -26 -7q-43 0 -43 48q0 30 19 52.5t49 22.5q56 0 56 -67zM225 48q0 -55 -36 -111q-34 -52 -83 -84q-32 -22 -46 -22q-13 0 -13 13t18 23q97 60 104 132q-11 -7 -26 -7
q-43 0 -43 48q0 30 19 52.5t49 22.5q57 0 57 -67z" />
    <glyph glyph-name="dagger" unicode="&#x2020;" horiz-adv-x="460" 
d="M486 455q0 -24 -15 -45t-39 -21q-20 0 -58 12.5t-58 12.5q-12 0 -16 -19q-16 -64 -49 -262q-11 -65 -29 -195q-9 -72 -70 -72q-44 0 -44 42q0 12 6 30q18 55 56 194q24 88 67 263q2 6 2 10q0 9 -10 9q-21 0 -63 -12.5t-64 -12.5q-31 0 -31 35q0 24 14.5 45t38.5 21
q20 0 58.5 -12.5t57.5 -12.5q13 0 16 19q6 29 8 76q2 61 4 77q7 72 70 72q43 0 43 -42q0 -24 -31.5 -100.5t-31.5 -92.5q0 -9 10 -9q18 0 61 12.5t66 12.5q31 0 31 -35z" />
    <glyph glyph-name="daggerdbl" unicode="&#x2021;" horiz-adv-x="526" 
d="M552 454q0 -25 -14.5 -45.5t-38.5 -20.5q-20 0 -58.5 12t-57.5 12q-15 0 -17 -18q-3 -36 -14 -106q-8 -39 -33 -106q-2 -5 -2 -8q0 -11 11 -11q18 0 61 12.5t66 12.5q31 0 31 -35q0 -24 -15 -45t-38 -21q-20 0 -58.5 12.5t-57.5 12.5q-13 0 -17 -19q-5 -29 -7 -76
q-3 -63 -4 -77q-3 -31 -21.5 -51.5t-48.5 -20.5q-44 0 -44 42q0 20 26 88q32 81 36 95q1 7 1 10q0 9 -9 9q-18 0 -61 -12.5t-66 -12.5q-31 0 -31 35q0 25 15 45.5t38 20.5q20 0 58.5 -12.5t57.5 -12.5q15 0 17 19q3 35 14 106q9 38 33 106q2 5 2 8q0 10 -11 10
q-18 0 -61 -12t-65 -12q-32 0 -32 34q0 25 15 45.5t38 20.5q20 0 58.5 -12t57.5 -12q13 0 17 18q5 30 7 77q3 62 4 77q3 30 21.5 51t48.5 21q44 0 44 -42q0 -21 -26 -89q-32 -81 -36 -95q-1 -6 -1 -10q0 -8 9 -8q18 0 61.5 12t65.5 12q31 0 31 -34z" />
    <glyph glyph-name="bullet" unicode="&#x2022;" horiz-adv-x="315" 
d="M284 340q0 -40 -28.5 -68.5t-67.5 -28.5q-41 0 -69.5 28t-28.5 69q0 40 29 68t69 28t68 -28.5t28 -67.5z" />
    <glyph glyph-name="ellipsis" unicode="&#x2026;" horiz-adv-x="736" 
d="M656 62q0 -29 -22 -51.5t-51 -22.5q-23 0 -38 15.5t-15 38.5q0 29 22 51.5t51 22.5q23 0 38 -15.5t15 -38.5zM416 62q0 -29 -22 -51.5t-51 -22.5q-23 0 -38 15.5t-15 38.5q0 29 22 51.5t51 22.5q23 0 38 -15.5t15 -38.5zM176 62q0 -29 -22 -51.5t-51 -22.5
q-23 0 -38 15.5t-15 38.5q0 29 22 51.5t51 22.5q23 0 38 -15.5t15 -38.5z" />
    <glyph glyph-name="perthousand" unicode="&#x2030;" horiz-adv-x="991" 
d="M944 232q0 -90 -53 -165q-58 -83 -144 -83q-56 0 -86 38q-28 35 -28 92q0 90 52 164q58 83 145 83q55 0 86 -38q28 -34 28 -91zM337 583q0 -90 -53 -165q-58 -83 -144 -83q-56 0 -86 38q-28 35 -28 91q0 90 52 165q59 83 145 83q55 0 86 -38q28 -35 28 -91zM620 714
q0 -13 -15 -30l-549 -692q-17 -21 -30 -21q-19 0 -19 16q0 12 14 30l550 692q17 21 31 21q18 0 18 -16zM599 232q0 -90 -53 -165q-58 -83 -144 -83q-56 0 -86 38q-28 35 -28 92q0 90 52 164q58 83 145 83q55 0 86 -38q28 -34 28 -91zM874 260q0 69 -51 69q-59 0 -94 -96
q-27 -75 -27 -147q0 -70 52 -70q58 0 93 97q27 74 27 147zM267 610q0 70 -51 70q-59 0 -94 -97q-27 -74 -27 -146q0 -70 52 -70q58 0 93 97q27 74 27 146zM529 260q0 69 -51 69q-59 0 -94 -96q-27 -75 -27 -147q0 -70 52 -70q58 0 93 97q27 74 27 147z" />
    <glyph glyph-name="guilsinglleft" unicode="&#x2039;" horiz-adv-x="226" 
d="M199 387q0 -5 -96 -178l18 -170v-1q0 -17 -14 -17q-6 0 -11 10q-22 53 -67 158q-4 9 -4 15q0 10 12 24l30 33q115 135 122 135q10 0 10 -9z" />
    <glyph glyph-name="guilsinglright" unicode="&#x203a;" horiz-adv-x="229" 
d="M202 213q0 -11 -12 -24q-5 -4 -43 -49l-95 -109q-9 -10 -15 -10q-9 0 -9 9q0 5 96 179l-19 169v2q0 16 15 16q6 0 10 -10q22 -53 68 -158q4 -8 4 -15z" />
    <glyph glyph-name="fraction" unicode="&#x2044;" horiz-adv-x="674" 
d="M658 714q0 -13 -15 -30l-549 -692q-17 -21 -30 -21q-19 0 -19 16q0 12 14 30l550 692q17 21 31 21q18 0 18 -16z" />
    <glyph glyph-name="trademark" unicode="&#x2122;" horiz-adv-x="732" 
d="M827 688q0 -10 -18 -12q-22 -4 -29 -12q-9 -11 -13 -44l-27 -195q-2 -18 -2 -29q0 -23 17.5 -26.5t17.5 -9.5q0 -12 -12 -12h-137q-7 0 -7 8q0 11 12 12q20 1 25 4q15 8 21 35q2 14 30 199l-149 -253q-6 -10 -16 -10q-11 0 -13 10l-38 260l-52 -188q-8 -27 -8 -38
q0 -16 20 -18t20 -9q0 -12 -12 -12h-107q-7 0 -7 8q0 9 17.5 13t24.5 11q9 11 20 45q18 65 56 195q7 24 7 36q0 17 -19.5 19t-19.5 9q0 12 12 12h86q15 0 17 -14l34 -239l140 239q8 14 22 14h80q7 0 7 -8zM404 703q0 -23 -9 -81q-2 -12 -11 -12q-8 0 -8 11v3v3q0 44 -46 44
h-32l-55 -246q-5 -23 -5 -32q0 -20 22 -23.5t22 -9.5q0 -11 -12 -11h-148q-7 0 -7 7q0 9 20 13q24 5 32 13.5t16 42.5l54 246h-33q-30 0 -46 -16q-9 -8 -19 -29q-8 -16 -15 -16t-7 7q0 17 27 84q4 10 12 10q6 0 6.5 -8t11.5 -8h197q10 0 14.5 8t10.5 8q8 0 8 -8z" />
    <glyph glyph-name="Omega" unicode="&#x2126;" 
 />
    <glyph glyph-name="partialdiff" unicode="&#x2202;" 
 />
    <glyph glyph-name="Delta" unicode="&#x2206;" 
 />
    <glyph glyph-name="product" unicode="&#x220f;" 
 />
    <glyph glyph-name="summation" unicode="&#x2211;" 
 />
    <glyph glyph-name="uni2215" unicode="&#x2215;" horiz-adv-x="674" 
d="M658 714q0 -13 -15 -30l-549 -692q-17 -21 -30 -21q-19 0 -19 16q0 12 14 30l550 692q17 21 31 21q18 0 18 -16z" />
    <glyph glyph-name="uni2219" unicode="&#x2219;" horiz-adv-x="352" 
d="M245 263q0 -29 -22 -51.5t-51 -22.5q-23 0 -38 15.5t-15 38.5q0 29 22 51.5t51 22.5q23 0 38 -15.5t15 -38.5z" />
    <glyph glyph-name="radical" unicode="&#x221a;" 
 />
    <glyph glyph-name="infinity" unicode="&#x221e;" horiz-adv-x="754" 
d="M716 315q0 -61 -47.5 -101.5t-109.5 -40.5q-89 0 -158 83q-93 -83 -181 -83q-49 0 -82 25q-36 28 -36 76q0 61 49 103q46 40 109 40q88 0 158 -84q92 84 180 84q49 0 83.5 -27t34.5 -75zM681 311q0 32 -23.5 50t-57.5 18q-69 0 -154 -81q67 -83 130 -83q42 0 73.5 27
t31.5 69zM373 292q-67 82 -130 82q-43 0 -74 -26.5t-31 -68.5q0 -33 23.5 -51t56.5 -18q69 0 155 82z" />
    <glyph glyph-name="integral" unicode="&#x222b;" 
 />
    <glyph glyph-name="approxequal" unicode="&#x2248;" 
 />
    <glyph glyph-name="approxequal" unicode="&#x22f2;" 
 />
    <glyph glyph-name="notequal" unicode="&#x2260;" horiz-adv-x="502" 
d="M457 288q0 -31 -30 -31h-134l-61 -59h177q22 0 22 -22q0 -31 -30 -31h-226l-120 -115q-18 -18 -31 -18q-17 0 -17 18q0 13 17 29l90 86h-87q-22 0 -22 22q0 13 9 22t21 9h135l61 59h-178q-22 0 -22 22q0 13 9 22.5t21 9.5h227l110 105q19 18 31 18q18 0 18 -18
q0 -12 -17 -28l-80 -77h85q22 0 22 -23z" />
    <glyph glyph-name="lessequal" unicode="&#x2264;" horiz-adv-x="539" 
d="M507 601q0 -20 -18 -30l-328 -186l246 -187q8 -6 8 -17q0 -13 -10.5 -24.5t-24.5 -11.5q-7 0 -12 5l-278 210q-10 8 -10 19q0 18 20 30l371 211q8 4 15 4q21 0 21 -23zM447 33q0 -13 -9.5 -23t-21.5 -10h-382q-22 0 -22 24q0 13 9 23t22 10h381q23 0 23 -24z" />
    <glyph glyph-name="greaterequal" unicode="&#x2265;" horiz-adv-x="545" 
d="M510 390q0 -18 -20 -29l-371 -211q-7 -5 -15 -5q-21 0 -21 23q0 20 18 30l328 187l-245 186q-8 6 -8 17q0 13 10.5 24.5t23.5 11.5q7 0 13 -4l278 -211q9 -8 9 -19zM450 33q0 -13 -9.5 -23t-21.5 -10h-382q-22 0 -22 24q0 13 9 23t22 10h381q23 0 23 -24z" />
    <glyph glyph-name="lozenge" unicode="&#x25ca;" horiz-adv-x="4909" 
 />
    <glyph glyph-name="uniF000" unicode="&#xf000;" horiz-adv-x="1670" 
 />
    <glyph glyph-name="uniFB01" unicode="&#xfb01;" horiz-adv-x="564" 
d="M569 70q0 -6 -7 -14q-68 -67 -130 -67q-41 0 -41 55q0 15 4 34l50 222q4 21 4 29q0 17 -33.5 24.5t-33.5 15.5q0 9 15 14q141 49 151 49q9 0 9 -9q0 -2 -1 -4l-73 -332q-3 -13 -3 -21q0 -19 16 -19q13 0 36.5 15t29.5 15q7 0 7 -7zM552 698q0 -13 -16.5 -36.5
t-28.5 -23.5q-4 0 -36 25t-68 25q-105 0 -143 -172l-21 -93h126q9 0 9 -8q0 -2 -1 -6q-15 -40 -30 -40h-116l-55 -258q-52 -237 -214 -338q-49 -30 -94 -30q-24 0 -47 10q-28 13 -28 34q0 13 18 36t31 23q8 0 31 -18.5t49 -18.5q103 0 151 220l74 340h-63q-13 0 -13 10
q0 12 34 22q42 13 47.5 17.5t9.5 16.5q36 102 41 113q26 61 63 101q91 99 194 99q26 0 57 -13q39 -15 39 -37z" />
    <glyph glyph-name="uniFB02" unicode="&#xfb02;" horiz-adv-x="554" 
d="M573 701q0 -3 -1 -5l-133 -607q-3 -13 -3 -21q0 -20 17 -20q15 0 37.5 15.5t26.5 15.5q9 0 9 -7q0 -6 -8 -14q-23 -24 -60 -44q-41 -23 -70 -23q-41 0 -41 55q0 15 4 34l64 288h-188l-55 -257q-52 -237 -214 -338q-48 -31 -94 -31q-24 0 -47 11q-28 13 -28 34q0 13 18 36
t31 23q8 0 31 -18.5t49 -18.5q103 0 151 219l74 340h-63q-13 0 -13 11q0 12 34 22q41 12 47 17t10 16q37 105 41 113q26 61 63 102q90 98 200 98q33 0 65 -9q46 -13 46 -37zM474 647q0 21 -22.5 32.5t-45.5 11.5q-107 0 -146 -175l-21 -94h188l43 193q4 22 4 32z" />
    <glyph glyph-name="glyph218" 
 />
    <glyph glyph-name="glyph221" 
 />
    <glyph glyph-name="glyph222" 
 />
    <glyph glyph-name="glyph223" 
 />
    <glyph glyph-name="glyph226" 
 />
    <glyph glyph-name="glyph227" 
 />
    <glyph glyph-name="glyph228" 
 />
    <glyph glyph-name="glyph229" 
 />
    <glyph glyph-name="glyph230" 
 />
    <glyph glyph-name="glyph231" 
 />
    <glyph glyph-name="glyph232" 
 />
    <glyph glyph-name="glyph233" 
 />
    </font>
</defs>
</svg>
